<?xml version="1.0" encoding="UTF-8" standalone="no"?>
<!-- Created with Inkscape (http://www.inkscape.org/) -->

<svg
   xmlns:dc="http://purl.org/dc/elements/1.1/"
   xmlns:cc="http://creativecommons.org/ns#"
   xmlns:rdf="http://www.w3.org/1999/02/22-rdf-syntax-ns#"
   xmlns:svg="http://www.w3.org/2000/svg"
   xmlns="http://www.w3.org/2000/svg"
   xmlns:sodipodi="http://sodipodi.sourceforge.net/DTD/sodipodi-0.dtd"
   xmlns:inkscape="http://www.inkscape.org/namespaces/inkscape"
   version="1.1"
   id="svg2"
   xml:space="preserve"
   width="816"
   height="1056"
   viewBox="0 0 816 1056"
   sodipodi:docname="network_journals.svg"
   inkscape:version="0.92.4 (5da689c313, 2019-01-14)"><metadata
     id="metadata8"><rdf:RDF><cc:Work
         rdf:about=""><dc:format>image/svg+xml</dc:format><dc:type
           rdf:resource="http://purl.org/dc/dcmitype/StillImage" /><dc:title></dc:title></cc:Work></rdf:RDF></metadata><defs
     id="defs6">







































































</defs><sodipodi:namedview
     pagecolor="#ffffff"
     bordercolor="#666666"
     borderopacity="1"
     objecttolerance="10"
     gridtolerance="10"
     guidetolerance="10"
     inkscape:pageopacity="0"
     inkscape:pageshadow="2"
     inkscape:window-width="1576"
     inkscape:window-height="913"
     id="namedview4"
     showgrid="false"
     inkscape:zoom="1.0904672"
     inkscape:cx="365.38888"
     inkscape:cy="541.07965"
     inkscape:window-x="0"
     inkscape:window-y="0"
     inkscape:window-maximized="0"
     inkscape:current-layer="g10" /><g
     id="g10"
     inkscape:groupmode="layer"
     inkscape:label="network_journals"
     transform="matrix(1.3333333,0,0,-1.3333333,0,1056)"><path
       inkscape:connector-curvature="0"
       id="path18"
       style="fill:none;stroke:#a9a9a9;stroke-width:1.5;stroke-linecap:round;stroke-linejoin:round;stroke-miterlimit:10;stroke-dasharray:none;stroke-opacity:1"
       d="m 399.97,372.97 5.5,2.63 5.27,2.31 5.04,1.99 4.81,1.69 4.58,1.4 4.35,1.13 4.13,0.87 3.89,0.63 3.67,0.39 3.43,0.17 3.21,-0.02 2.98,-0.22 2.75,-0.39 2.52,-0.56 2.29,-0.7 2.06,-0.83 1.83,-0.96 1.6,-1.06 1.38,-1.15 1.14,-1.22 0.92,-1.29 0.69,-1.34 0.46,-1.38 0.23,-1.39 v -1.41 l -0.23,-1.39 -0.46,-1.38 -0.69,-1.34 -0.92,-1.29 -1.14,-1.22 -1.38,-1.15 -1.6,-1.06 -1.83,-0.96 -2.06,-0.83 -2.29,-0.7 -2.52,-0.56 -2.75,-0.39 -2.98,-0.22 -3.21,-0.02 -3.43,0.17 -3.67,0.39 -3.89,0.63 -4.13,0.87 -4.35,1.13 -4.58,1.4 -4.81,1.69 -5.04,1.99 -5.27,2.31 -5.5,2.64 v 0" /><path
       inkscape:connector-curvature="0"
       id="path20"
       style="fill:none;stroke:#a9a9a9;stroke-width:1.5;stroke-linecap:round;stroke-linejoin:round;stroke-miterlimit:10;stroke-dasharray:none;stroke-opacity:1"
       d="m 403.84,374.82 -3.87,-1.85" /><path
       inkscape:connector-curvature="0"
       id="path22"
       style="fill:#a9a9a9;fill-opacity:1;fill-rule:nonzero;stroke:#a9a9a9;stroke-width:1.5;stroke-linecap:round;stroke-linejoin:round;stroke-miterlimit:10;stroke-dasharray:none;stroke-opacity:1"
       d="m 413.86,385.78 -0.87,-1.28 -0.98,-1.33 -1.12,-1.39 -1.31,-1.49 -1.62,-1.64 -2.22,-1.92 -5.82,-3.65 0.11,-0.23 6.49,2.25 2.89,0.53 2.29,0.24 1.98,0.09 h 1.79 l 1.65,-0.07 1.54,-0.11 z" /><path
       inkscape:connector-curvature="0"
       id="path24"
       style="fill:none;stroke:#a9a9a9;stroke-width:2.25;stroke-linecap:round;stroke-linejoin:round;stroke-miterlimit:10;stroke-dasharray:none;stroke-opacity:1"
       d="m 270.31,331.68 5.5,2.64 5.27,2.3 5.04,2 4.81,1.69 4.58,1.4 4.35,1.13 4.12,0.87 3.9,0.62 3.66,0.39 3.44,0.18 3.21,-0.03 2.98,-0.22 2.74,-0.39 2.52,-0.55 2.29,-0.7 2.07,-0.84 1.83,-0.95 1.6,-1.06 1.38,-1.15 1.14,-1.23 0.92,-1.29 0.69,-1.34 0.45,-1.37 0.23,-1.4 v -1.4 l -0.23,-1.4 -0.45,-1.37 -0.69,-1.34 -0.92,-1.29 -1.14,-1.23 -1.38,-1.15 -1.6,-1.06 -1.83,-0.95 -2.07,-0.83 -2.29,-0.71 -2.52,-0.55 -2.74,-0.39 -2.98,-0.22 -3.21,-0.03 -3.44,0.18 -3.66,0.39 -3.9,0.62 -4.12,0.87 -4.35,1.13 -4.58,1.41 -4.81,1.69 -5.04,1.99 -5.27,2.3 -5.5,2.64 v 0" /><path
       inkscape:connector-curvature="0"
       id="path26"
       style="fill:none;stroke:#a9a9a9;stroke-width:2.25;stroke-linecap:round;stroke-linejoin:round;stroke-miterlimit:10;stroke-dasharray:none;stroke-opacity:1"
       d="m 274.18,333.54 -3.87,-1.86" /><path
       inkscape:connector-curvature="0"
       id="path28"
       style="fill:#a9a9a9;fill-opacity:1;fill-rule:nonzero;stroke:#a9a9a9;stroke-width:2.25;stroke-linecap:round;stroke-linejoin:round;stroke-miterlimit:10;stroke-dasharray:none;stroke-opacity:1"
       d="m 284.19,344.52 -0.87,-1.28 -0.98,-1.32 -1.12,-1.4 -1.32,-1.49 -1.62,-1.64 -2.21,-1.92 -5.83,-3.65 0.14,-0.28 6.49,2.25 2.89,0.53 2.29,0.24 1.98,0.09 h 1.79 l 1.65,-0.07 1.54,-0.11 z" /><path
       inkscape:connector-curvature="0"
       id="path30"
       style="fill:none;stroke:#a9a9a9;stroke-width:2.25;stroke-linecap:round;stroke-linejoin:round;stroke-miterlimit:10;stroke-dasharray:none;stroke-opacity:1"
       d="m 372.07,464.83 5.5,2.63 5.27,2.31 5.04,1.99 4.81,1.69 4.58,1.4 4.35,1.13 4.12,0.87 3.9,0.63 3.66,0.39 3.44,0.18 3.21,-0.03 2.98,-0.22 2.74,-0.39 2.52,-0.56 2.29,-0.7 2.07,-0.83 1.83,-0.96 1.6,-1.05 1.38,-1.15 1.14,-1.23 0.92,-1.29 0.69,-1.34 0.45,-1.38 0.23,-1.39 v -1.4 l -0.23,-1.4 -0.45,-1.37 -0.69,-1.34 -0.92,-1.29 -1.14,-1.23 -1.38,-1.15 -1.6,-1.06 -1.83,-0.95 -2.07,-0.84 -2.29,-0.7 -2.52,-0.55 -2.74,-0.4 -2.98,-0.21 -3.21,-0.03 -3.44,0.17 -3.66,0.4 -3.9,0.62 -4.12,0.87 -4.35,1.13 -4.58,1.4 -4.81,1.69 -5.04,1.99 -5.27,2.31 -5.5,2.64 v 0" /><path
       inkscape:connector-curvature="0"
       id="path32"
       style="fill:none;stroke:#a9a9a9;stroke-width:2.25;stroke-linecap:round;stroke-linejoin:round;stroke-miterlimit:10;stroke-dasharray:none;stroke-opacity:1"
       d="m 375.94,466.68 -3.87,-1.85" /><path
       inkscape:connector-curvature="0"
       id="path34"
       style="fill:#a9a9a9;fill-opacity:1;fill-rule:nonzero;stroke:#a9a9a9;stroke-width:2.25;stroke-linecap:round;stroke-linejoin:round;stroke-miterlimit:10;stroke-dasharray:none;stroke-opacity:1"
       d="m 385.95,477.67 -0.87,-1.28 -0.98,-1.33 -1.12,-1.39 -1.32,-1.49 -1.62,-1.64 -2.21,-1.92 -5.83,-3.65 0.14,-0.28 6.49,2.25 2.89,0.53 2.29,0.24 1.98,0.09 h 1.79 l 1.65,-0.07 1.54,-0.12 z" /><path
       inkscape:connector-curvature="0"
       id="path36"
       style="fill:none;stroke:#a9a9a9;stroke-width:3;stroke-linecap:round;stroke-linejoin:round;stroke-miterlimit:10;stroke-dasharray:none;stroke-opacity:1"
       d="m 384.22,303.8 5.49,2.63 5.27,2.31 5.04,1.99 4.81,1.69 4.58,1.4 4.36,1.13 4.12,0.87 3.89,0.63 3.67,0.39 3.44,0.18 3.2,-0.03 2.98,-0.22 2.75,-0.39 2.52,-0.56 2.29,-0.7 2.06,-0.83 1.83,-0.96 1.61,-1.06 1.37,-1.15 1.15,-1.22 0.91,-1.29 0.69,-1.34 0.46,-1.38 0.23,-1.39 v -1.4 l -0.23,-1.4 -0.46,-1.37 -0.69,-1.34 -0.91,-1.29 -1.15,-1.23 -1.37,-1.15 -1.61,-1.06 -1.83,-0.95 -2.06,-0.84 -2.29,-0.7 -2.52,-0.55 -2.75,-0.4 -2.98,-0.21 -3.2,-0.03 -3.44,0.17 -3.67,0.4 -3.89,0.62 -4.12,0.87 -4.36,1.13 -4.58,1.4 -4.81,1.69 -5.04,1.99 -5.27,2.31 -5.49,2.64 v 0" /><path
       inkscape:connector-curvature="0"
       id="path38"
       style="fill:none;stroke:#a9a9a9;stroke-width:3;stroke-linecap:round;stroke-linejoin:round;stroke-miterlimit:10;stroke-dasharray:none;stroke-opacity:1"
       d="m 388.08,305.65 -3.86,-1.85" /><path
       inkscape:connector-curvature="0"
       id="path40"
       style="fill:#a9a9a9;fill-opacity:1;fill-rule:nonzero;stroke:#a9a9a9;stroke-width:3;stroke-linecap:round;stroke-linejoin:round;stroke-miterlimit:10;stroke-dasharray:none;stroke-opacity:1"
       d="m 398.08,316.66 -0.87,-1.28 -0.98,-1.33 -1.12,-1.39 -1.31,-1.49 -1.62,-1.64 -2.22,-1.92 -5.82,-3.65 0.15,-0.33 6.5,2.26 2.88,0.52 2.29,0.24 1.99,0.1 h 1.79 l 1.64,-0.07 1.55,-0.12 z" /><path
       inkscape:connector-curvature="0"
       id="path42"
       style="fill:none;stroke:#a9a9a9;stroke-width:1.5;stroke-linecap:round;stroke-linejoin:round;stroke-miterlimit:10;stroke-dasharray:none;stroke-opacity:1"
       d="m 375.73,281.49 0.13,-0.07 0.87,-0.49 2.11,-1.17 3.52,-1.99 4.82,-2.76 5.72,-3.32 6.13,-3.64 6.11,-3.72 5.75,-3.63 5.23,-3.46 4.65,-3.27 4.11,-3.12 3.64,-3.03 3.25,-3 2.96,-3.07 1.83,-2.08 2.64,-3.26 2.51,-3.47 2.44,-3.8 2.42,-4.22 2.48,-4.74 2.56,-5.32 2.67,-5.92 2.75,-6.44 2.77,-6.71 2.65,-6.62 2.35,-6.02 1.88,-4.92 1.31,-3.45 0.72,-1.94 0.26,-0.7 0.02,-0.07" /><path
       inkscape:connector-curvature="0"
       id="path44"
       style="fill:none;stroke:#a9a9a9;stroke-width:1.5;stroke-linecap:round;stroke-linejoin:round;stroke-miterlimit:10;stroke-dasharray:none;stroke-opacity:1"
       d="m 391.21,353.93 0.18,-0.14 1.09,-0.83 2.35,-1.82 3.3,-2.62 3.62,-2.95 3.39,-2.89 2.89,-2.66 2.37,-2.41 1.94,-2.29 1.63,-2.29 0.34,-0.54 1.36,-2.4 1.24,-2.65 1.17,-3.08 1.16,-3.64 1.18,-4.24 1.17,-4.63 1.06,-4.47 0.8,-3.51 0.43,-1.98 0.13,-0.59 v -0.02" /><path
       inkscape:connector-curvature="0"
       id="path46"
       style="fill:none;stroke:#a9a9a9;stroke-width:1.5;stroke-linecap:round;stroke-linejoin:round;stroke-miterlimit:10;stroke-dasharray:none;stroke-opacity:1"
       d="m 385.93,301.5 0.28,0.08 1.54,0.46 2.91,0.81 3.42,0.89 3.17,0.71 2.67,0.44 2.29,0.15 1.74,-0.06 2.1,-0.28 2.3,-0.54 2.7,-0.87 3.2,-1.21 3.42,-1.4 2.88,-1.23 1.55,-0.68 0.3,-0.13 v 0" /><path
       inkscape:connector-curvature="0"
       id="path48"
       style="fill:none;stroke:#a9a9a9;stroke-width:1.5;stroke-linecap:round;stroke-linejoin:round;stroke-miterlimit:10;stroke-dasharray:none;stroke-opacity:1"
       d="m 127.4,376.83 0.13,0.07 0.83,0.48 2.02,1.15 3.44,1.96 4.82,2.69 5.88,3.24 6.51,3.53 6.7,3.53 6.55,3.35 6.18,3.02 5.74,2.64 5.29,2.25 4.91,1.87 4.61,1.52 4.44,1.21 4.36,0.95 2.13,0.38 4.37,0.61 4.49,0.39 4.71,0.17 5.05,-0.07 5.49,-0.29 6.03,-0.51 6.6,-0.74 7.12,-0.95 7.48,-1.1 7.54,-1.2 7.14,-1.2 6.23,-1.09 4.87,-0.88 3.25,-0.6 1.71,-0.32 0.54,-0.1 0.03,-0.01" /><path
       inkscape:connector-curvature="0"
       id="path50"
       style="fill:none;stroke:#a9a9a9;stroke-width:1.5;stroke-linecap:round;stroke-linejoin:round;stroke-miterlimit:10;stroke-dasharray:none;stroke-opacity:1"
       d="m 256.16,522.73 0.1,-0.14 0.66,-0.86 1.54,-2.06 2.49,-3.37 3.27,-4.46 3.67,-5.12 3.7,-5.3 3.47,-5.14 3.08,-4.79 2.62,-4.38 2.2,-4.04 1.8,-3.77 1.48,-3.64 1.22,-3.62 0.12,-0.42 0.97,-3.65 0.77,-3.82 0.58,-4.11 0.4,-4.53 0.24,-5.06 0.09,-5.65 -0.05,-6.2 -0.15,-6.53 -0.23,-6.46 -0.26,-5.81 -0.24,-4.59 -0.17,-2.98 -0.09,-1.41 -0.02,-0.32 v -0.01" /><path
       inkscape:connector-curvature="0"
       id="path52"
       style="fill:none;stroke:#a9a9a9;stroke-width:1.5;stroke-linecap:round;stroke-linejoin:round;stroke-miterlimit:10;stroke-dasharray:none;stroke-opacity:1"
       d="m 429.26,400.53 -0.15,-0.05 -0.98,-0.34 -2.35,-0.81 -3.9,-1.32 -5.27,-1.75 -6.18,-1.99 -6.54,-2.04 -6.45,-1.91 -6.08,-1.68 -5.56,-1.39 -5.05,-1.08 -4.62,-0.78 -4.3,-0.5 -4.1,-0.24 h -3.8 l -4,0.2 -4.08,0.45 -4.28,0.72 -4.61,1 -5.04,1.33 -5.55,1.64 -6.06,1.96 -6.43,2.21 -6.54,2.34 -6.18,2.28 -5.3,2 -3.96,1.53 -2.42,0.94 -1.05,0.41 -0.18,0.07 v 0" /><path
       inkscape:connector-curvature="0"
       id="path54"
       style="fill:none;stroke:#a9a9a9;stroke-width:2.25;stroke-linecap:round;stroke-linejoin:round;stroke-miterlimit:10;stroke-dasharray:none;stroke-opacity:1"
       d="m 358.19,380.41 -0.23,-0.01 -1.36,-0.03 -2.95,-0.05 -4.23,-0.02 -4.74,0.03 -4.56,0.14 -4.04,0.25 -3.47,0.39 -3.04,0.56 -2.76,0.75 -1.05,0.35 -2.6,1.03 -2.66,1.31 -2.87,1.69 -3.21,2.12 -3.6,2.58 -3.86,2.91 -3.72,2.9 -2.98,2.36 -1.77,1.43 -0.59,0.49 -0.04,0.03" /><path
       inkscape:connector-curvature="0"
       id="path56"
       style="fill:none;stroke:#a9a9a9;stroke-width:1.5;stroke-linecap:round;stroke-linejoin:round;stroke-miterlimit:10;stroke-dasharray:none;stroke-opacity:1"
       d="m 216.23,450.74 0.2,-0.04 1.22,-0.24 2.76,-0.57 4.21,-0.9 5.07,-1.14 5.22,-1.25 4.89,-1.28 4.32,-1.28 3.73,-1.29 3.26,-1.35 2.92,-1.47 2.1,-1.23 2.63,-1.77 2.6,-2.03 2.69,-2.42 2.89,-2.89 3.17,-3.43 3.43,-3.93 3.54,-4.2 3.31,-4.04 2.66,-3.3 1.68,-2.13 0.71,-0.9 0.1,-0.12" /><path
       inkscape:connector-curvature="0"
       id="path58"
       style="fill:none;stroke:#a9a9a9;stroke-width:1.5;stroke-linecap:round;stroke-linejoin:round;stroke-miterlimit:10;stroke-dasharray:none;stroke-opacity:1"
       d="m 274.77,296.68 -0.04,0.18 -0.24,1.12 -0.53,2.62 -0.83,4.18 -1.01,5.35 -1.05,5.89 -0.96,5.86 -0.77,5.47 -0.55,4.93 -0.31,4.4 -0.07,3.97 0.18,3.68 0.4,3.54 0.07,0.5 0.65,3.47 0.9,3.53 1.21,3.73 1.55,4.07 1.93,4.5 2.31,4.97 2.63,5.35 2.79,5.45 2.65,5.07 2.21,4.13 1.51,2.78 0.74,1.35 0.18,0.33 v 0.01" /><path
       inkscape:connector-curvature="0"
       id="path60"
       style="fill:none;stroke:#a9a9a9;stroke-width:2.25;stroke-linecap:round;stroke-linejoin:round;stroke-miterlimit:10;stroke-dasharray:none;stroke-opacity:1"
       d="m 346.82,454.36 -0.1,-0.2 -0.61,-1.18 -1.34,-2.6 -2,-3.77 -2.33,-4.27 -2.38,-4.15 -2.24,-3.67 -2.09,-3.09 -2,-2.6 -2.01,-2.23 -1.53,-1.47 -2.2,-1.86 -2.48,-1.77 -2.89,-1.78 -3.44,-1.86 -4.03,-1.99 -4.49,-2.08 -4.52,-2 -3.86,-1.66 -2.57,-1.08 -1.1,-0.46 -0.15,-0.06" /><path
       inkscape:connector-curvature="0"
       id="path62"
       style="fill:none;stroke:#a9a9a9;stroke-width:2.25;stroke-linecap:round;stroke-linejoin:round;stroke-miterlimit:10;stroke-dasharray:none;stroke-opacity:1"
       d="m 340.7,328.34 -0.16,0.12 -1,0.73 -2.26,1.67 -3.43,2.59 -4.15,3.18 -4.26,3.37 -3.96,3.27 -3.45,3.03 -2.92,2.79 -2.45,2.64 -2.09,2.58 -1.63,2.35 -1.66,2.73 -1.51,2.97 -1.44,3.35 -1.42,3.86 -1.44,4.47 -1.47,5.03 -1.45,5.35 -1.33,5.15 -1.06,4.27 -0.68,2.81 -0.3,1.27 -0.05,0.22 v 0" /><path
       inkscape:connector-curvature="0"
       id="path64"
       style="fill:none;stroke:#a9a9a9;stroke-width:1.5;stroke-linecap:round;stroke-linejoin:round;stroke-miterlimit:10;stroke-dasharray:none;stroke-opacity:1"
       d="m 423.06,302.82 -0.19,0.14 -1.09,0.83 -2.34,1.82 -3.31,2.61 -3.61,2.95 -3.39,2.9 -2.9,2.65 -2.37,2.42 -1.94,2.29 -1.62,2.28 -0.34,0.54 -1.37,2.4 -1.23,2.65 -1.17,3.08 -1.16,3.65 -1.18,4.24 -1.18,4.63 -1.05,4.46 -0.8,3.51 -0.44,1.99 -0.12,0.58 v 0.02" /><path
       inkscape:connector-curvature="0"
       id="path66"
       style="fill:none;stroke:#a9a9a9;stroke-width:1.5;stroke-linecap:round;stroke-linejoin:round;stroke-miterlimit:10;stroke-dasharray:none;stroke-opacity:1"
       d="m 278.11,294.7 0.1,0.15 0.59,0.96 1.39,2.23 2.26,3.59 2.97,4.61 3.35,5.11 3.45,5.1 3.33,4.73 3.13,4.2 2.93,3.63 2.78,3.14 2.73,2.74 2.77,2.43 1.45,1.16 2.93,2.13 3.16,2 3.51,1.94 3.98,1.92 4.55,1.98 5.16,2.06 5.67,2.12 5.93,2.11 5.7,1.96 4.88,1.63 3.53,1.16 1.97,0.63 0.67,0.22 0.05,0.01" /><path
       inkscape:connector-curvature="0"
       id="path68"
       style="fill:none;stroke:#a9a9a9;stroke-width:2.25;stroke-linecap:round;stroke-linejoin:round;stroke-miterlimit:10;stroke-dasharray:none;stroke-opacity:1"
       d="m 361.79,449.66 0.13,-0.19 0.78,-1.17 1.64,-2.51 2.24,-3.51 2.37,-3.84 2.12,-3.65 1.72,-3.25 1.31,-2.88 0.96,-2.66 0.62,-2.32 0.49,-2.62 0.28,-2.83 0.08,-3.23 -0.11,-3.76 -0.27,-4.33 -0.41,-4.62 -0.43,-4.28 -0.35,-3.12 -0.18,-1.53 -0.03,-0.29 v 0" /><path
       inkscape:connector-curvature="0"
       id="path70"
       style="fill:none;stroke:#a9a9a9;stroke-width:1.5;stroke-linecap:round;stroke-linejoin:round;stroke-miterlimit:10;stroke-dasharray:none;stroke-opacity:1"
       d="m 81.53,246.04 0.09,0.11 0.63,0.67 1.54,1.64 2.66,2.82 3.77,3.97 4.69,4.88 5.31,5.44 5.59,5.62 5.58,5.49 5.39,5.14 5.09,4.67 4.76,4.15 4.47,3.66 4.25,3.2 4.11,2.81 4.05,2.49 4.09,2.23 1.1,0.55 4.18,1.97 4.35,1.79 4.62,1.63 5,1.52 5.47,1.42 6.04,1.35 6.64,1.31 7.23,1.27 7.7,1.22 7.93,1.17 7.76,1.06 7.12,0.93 5.98,0.74 4.47,0.53 2.83,0.32 1.37,0.16 0.35,0.04 h 0.01" /><path
       inkscape:connector-curvature="0"
       id="path72"
       style="fill:none;stroke:#a9a9a9;stroke-width:1.5;stroke-linecap:round;stroke-linejoin:round;stroke-miterlimit:10;stroke-dasharray:none;stroke-opacity:1"
       d="m 127.19,374.29 0.18,0.01 1.08,0.04 2.58,0.07 4.2,0.1 5.52,0.09 6.27,0.05 6.44,-0.03 6.14,-0.13 5.63,-0.26 5.04,-0.39 4.5,-0.53 4.08,-0.71 3.79,-0.9 3.63,-1.1 0.12,-0.04 3.53,-1.31 3.55,-1.57 3.67,-1.89 3.91,-2.28 4.26,-2.72 4.66,-3.18 5.02,-3.6 5.22,-3.88 5.1,-3.88 4.53,-3.52 3.52,-2.77 2.25,-1.78 1.02,-0.82 0.21,-0.17 v 0" /><path
       inkscape:connector-curvature="0"
       id="path74"
       style="fill:none;stroke:#a9a9a9;stroke-width:1.5;stroke-linecap:round;stroke-linejoin:round;stroke-miterlimit:10;stroke-dasharray:none;stroke-opacity:1"
       d="m 250.36,235.23 -0.07,0.19 -0.41,1.19 -0.91,2.69 -1.34,4.09 -1.56,4.9 -1.52,5.06 -1.32,4.75 -1.02,4.25 -0.72,3.77 -0.43,3.39 -0.17,3.2 0.02,1.86 0.2,3.1 0.44,3.23 0.73,3.51 1.04,3.92 1.37,4.44 1.65,4.9 1.83,5.1 1.77,4.76 1.43,3.75 0.89,2.27 0.34,0.87 0.03,0.08" /><path
       inkscape:connector-curvature="0"
       id="path76"
       style="fill:none;stroke:#a9a9a9;stroke-width:1.5;stroke-linecap:round;stroke-linejoin:round;stroke-miterlimit:10;stroke-dasharray:none;stroke-opacity:1"
       d="m 320.03,225.89 -0.14,0.11 -0.89,0.67 -2.09,1.6 -3.36,2.59 -4.31,3.38 -4.79,3.83 -4.77,3.93 -4.42,3.77 -3.91,3.53 -3.37,3.27 -2.88,3.09 -2.49,2.98 -2.18,2.99 -1.1,1.69 -1.85,3.13 -1.71,3.34 -1.6,3.68 -1.55,4.16 -1.55,4.72 -1.56,5.33 -1.59,5.85 -1.55,6.12 -1.42,5.89 -1.18,5.06 -0.83,3.68 -0.46,2.09 -0.16,0.73 -0.01,0.06" /><path
       inkscape:connector-curvature="0"
       id="path78"
       style="fill:none;stroke:#a9a9a9;stroke-width:1.5;stroke-linecap:round;stroke-linejoin:round;stroke-miterlimit:10;stroke-dasharray:none;stroke-opacity:1"
       d="m 420.68,299.36 -0.15,-0.03 -0.96,-0.16 -2.32,-0.39 -3.94,-0.63 -5.47,-0.86 -6.61,-0.99 -7.23,-1.03 -7.36,-0.96 -7.11,-0.83 -6.63,-0.64 -6.07,-0.44 -5.52,-0.22 h -5.05 l -4.68,0.23 -4.44,0.46 -4.31,0.67 -0.77,0.15 -4.23,0.92 -4.27,1.18 -4.4,1.46 -4.65,1.8 -4.99,2.17 -5.42,2.57 -5.87,2.97 -6.29,3.34 -6.54,3.59 -6.5,3.67 -6.04,3.47 -5.14,3 -3.86,2.29 -2.44,1.45 -1.14,0.69 -0.28,0.16 v 0.01" /><path
       inkscape:connector-curvature="0"
       id="path80"
       style="fill:none;stroke:#a9a9a9;stroke-width:1.5;stroke-linecap:round;stroke-linejoin:round;stroke-miterlimit:10;stroke-dasharray:none;stroke-opacity:1"
       d="m 287.31,396.23 -0.03,-0.24 -0.18,-1.41 -0.4,-2.98 -0.59,-4.09 -0.71,-4.36 -0.77,-4.01 -0.81,-3.44 -0.89,-2.91 -1.01,-2.54 -0.82,-1.65 -1.32,-2.26 -1.61,-2.29 -2.03,-2.46 -2.53,-2.75 -3.02,-3.06 -3.26,-3.17 -3,-2.83 -2.1,-1.94 -0.93,-0.85 -0.13,-0.12" /><path
       inkscape:connector-curvature="0"
       id="path82"
       style="fill:none;stroke:#a9a9a9;stroke-width:4.5;stroke-linecap:round;stroke-linejoin:round;stroke-miterlimit:10;stroke-dasharray:none;stroke-opacity:1"
       d="m 358.03,365.99 -0.15,-0.12 -0.92,-0.74 -2.15,-1.7 -3.37,-2.64 -4.25,-3.27 -4.61,-3.46 -4.53,-3.28 -4.22,-2.89 -3.82,-2.44 -3.5,-1.99 -3.28,-1.62 -3.19,-1.31 -1.86,-0.64 -3.24,-0.95 -3.43,-0.75 -3.75,-0.57 -4.22,-0.42 -4.8,-0.28 -5.38,-0.15 -5.79,-0.05 -5.8,0.03 -5.19,0.09 -3.91,0.09 -2.3,0.06 -0.83,0.03 h -0.08" /><path
       inkscape:connector-curvature="0"
       id="path84"
       style="fill:none;stroke:#a9a9a9;stroke-width:1.5;stroke-linecap:round;stroke-linejoin:round;stroke-miterlimit:10;stroke-dasharray:none;stroke-opacity:1"
       d="m 213.47,448.55 0.11,-0.14 0.71,-0.87 1.67,-2.05 2.66,-3.31 3.39,-4.3 3.73,-4.82 3.67,-4.88 3.36,-4.65 2.92,-4.28 2.45,-3.92 2.03,-3.62 1.67,-3.44 1.38,-3.4 0.53,-1.5 1.06,-3.44 0.86,-3.63 0.68,-3.93 0.53,-4.38 0.38,-4.93 0.27,-5.53 0.16,-6.04 0.07,-6.26 -0.01,-5.97 -0.04,-5.06 -0.05,-3.6 -0.04,-1.97 -0.02,-0.64 v -0.03" /><path
       inkscape:connector-curvature="0"
       id="path86"
       style="fill:none;stroke:#a9a9a9;stroke-width:1.5;stroke-linecap:round;stroke-linejoin:round;stroke-miterlimit:10;stroke-dasharray:none;stroke-opacity:1"
       d="m 271.55,296.15 -0.26,0.23 -1.31,1.16 -1.99,1.83 -1.79,1.79 -1.31,1.56 -0.94,1.47 -0.08,0.16 -0.68,1.55 -0.58,1.91 -0.55,2.5 -0.52,2.9 -0.37,2.33 -0.13,0.86 v 0.02" /><path
       inkscape:connector-curvature="0"
       id="path88"
       style="fill:none;stroke:#a9a9a9;stroke-width:1.5;stroke-linecap:round;stroke-linejoin:round;stroke-miterlimit:10;stroke-dasharray:none;stroke-opacity:1"
       d="m 312.8,326.1 -0.26,-0.07 -1.49,-0.41 -2.94,-0.79 -3.69,-0.92 -3.61,-0.79 -3.13,-0.55 -2.65,-0.28 -2.39,-0.01 -1.05,0.08 -2.27,0.32 -2.44,0.59 -2.81,0.92 -3.29,1.27 -3.66,1.53 -3.44,1.52 -2.41,1.09 -0.95,0.44 -0.08,0.04" /><path
       inkscape:connector-curvature="0"
       id="path90"
       style="fill:none;stroke:#a9a9a9;stroke-width:1.5;stroke-linecap:round;stroke-linejoin:round;stroke-miterlimit:10;stroke-dasharray:none;stroke-opacity:1"
       d="m 348.68,452.62 -0.05,-0.15 -0.31,-0.97 -0.75,-2.33 -1.28,-3.88 -1.77,-5.26 -2.13,-6.2 -2.34,-6.59 -2.4,-6.5 -2.36,-6.1 -2.3,-5.52 -2.23,-4.93 -2.2,-4.38 -2.22,-3.93 -2.29,-3.58 -2.42,-3.35 -0.7,-0.9 -2.62,-3.14 -2.86,-3.07 -3.2,-3.06 -3.61,-3.13 -4.12,-3.29 -4.69,-3.5 -5.24,-3.72 -5.7,-3.88 -5.92,-3.92 -5.76,-3.73 -5.11,-3.25 -4,-2.52 -2.64,-1.64 -1.32,-0.81 -0.35,-0.22 h -0.01" /><path
       inkscape:connector-curvature="0"
       id="path92"
       style="fill:none;stroke:#a9a9a9;stroke-width:2.25;stroke-linecap:round;stroke-linejoin:round;stroke-miterlimit:10;stroke-dasharray:none;stroke-opacity:1"
       d="m 241.07,384.6 0.15,-0.23 0.89,-1.33 1.65,-2.54 1.89,-3.03 1.64,-2.84 1.23,-2.45 0.85,-2.17 0.5,-1.8 0.37,-2.11 0.17,-2.37 -0.03,-2.84 -0.2,-3.42 -0.31,-3.71 -0.32,-3.19 -0.2,-1.76 -0.04,-0.37 v 0" /><path
       inkscape:connector-curvature="0"
       id="path94"
       style="fill:none;stroke:#a9a9a9;stroke-width:6.75;stroke-linecap:round;stroke-linejoin:round;stroke-miterlimit:10;stroke-dasharray:none;stroke-opacity:1"
       d="m 328.42,311.41 -0.23,-0.02 -1.38,-0.13 -2.96,-0.28 -4.19,-0.33 -4.61,-0.31 -4.38,-0.18 -3.85,-0.03 -3.31,0.17 -2.92,0.36 -2.71,0.58 -0.34,0.09 -2.6,0.82 -2.69,1.09 -2.93,1.45 -3.32,1.87 -3.74,2.29 -3.98,2.56 -3.74,2.5 -2.86,1.95 -1.55,1.07 -0.4,0.28 h -0.01" /><path
       inkscape:connector-curvature="0"
       id="path96"
       style="fill:none;stroke:#a9a9a9;stroke-width:1.5;stroke-linecap:round;stroke-linejoin:round;stroke-miterlimit:10;stroke-dasharray:none;stroke-opacity:1"
       d="m 255.02,233.71 0.04,0.17 0.27,1.09 0.64,2.55 1.05,4.1 1.41,5.31 1.63,5.9 1.72,5.94 1.72,5.55 1.7,4.98 1.68,4.39 1.69,3.87 1.76,3.46 1.89,3.19 1.11,1.68 2.14,2.93 2.4,2.89 2.76,2.92 3.2,3.07 3.72,3.28 4.28,3.55 4.76,3.76 5.01,3.84 4.85,3.64 4.18,3.07 3.06,2.22 1.73,1.25 0.61,0.43 0.04,0.04" /><path
       inkscape:connector-curvature="0"
       id="path98"
       style="fill:none;stroke:#a9a9a9;stroke-width:1.5;stroke-linecap:round;stroke-linejoin:round;stroke-miterlimit:10;stroke-dasharray:none;stroke-opacity:1"
       d="m 324.13,227.22 -0.07,0.17 -0.48,1.07 -1.11,2.49 -1.7,3.93 -2.11,4.95 -2.21,5.38 -2.08,5.29 -1.78,4.89 -1.44,4.41 -1.1,3.96 -0.78,3.65 -0.5,3.47 -0.21,2.43 -0.1,3.41 0.13,3.54 0.38,3.8 0.66,4.22 0.93,4.74 1.2,5.27 1.42,5.66 1.5,5.69 1.42,5.12 1.12,3.95 0.7,2.4 0.28,0.95 0.03,0.12" /><path
       inkscape:connector-curvature="0"
       id="path100"
       style="fill:none;stroke:#a9a9a9;stroke-width:1.5;stroke-linecap:round;stroke-linejoin:round;stroke-miterlimit:10;stroke-dasharray:none;stroke-opacity:1"
       d="m 294.17,395.68 0.14,-0.16 0.83,-1.02 1.84,-2.25 2.66,-3.35 3.04,-3.9 2.94,-3.92 2.56,-3.63 2.11,-3.25 1.67,-2.96 1.32,-2.79 0.98,-2.57 0.84,-2.82 0.65,-3.03 0.49,-3.4 0.35,-3.93 0.23,-4.52 0.13,-5 0.04,-5.07 -0.01,-4.42 -0.04,-3.08 -0.02,-1.46 -0.01,-0.29 v 0" /><path
       inkscape:connector-curvature="0"
       id="path102"
       style="fill:none;stroke:#a9a9a9;stroke-width:2.25;stroke-linecap:round;stroke-linejoin:round;stroke-miterlimit:10;stroke-dasharray:none;stroke-opacity:1"
       d="m 361.59,359.26 -0.12,-0.22 -0.77,-1.24 -1.61,-2.56 -2.19,-3.41 -2.35,-3.5 -2.22,-3.09 -2.03,-2.55 -1.91,-2.06 -1.91,-1.73 -0.63,-0.5 -2.06,-1.44 -2.34,-1.36 -2.81,-1.35 -3.39,-1.42 -3.93,-1.49 -4.11,-1.46 -3.52,-1.2 -2.18,-0.72 -0.74,-0.24 -0.03,-0.01" /><path
       inkscape:connector-curvature="0"
       id="path104"
       style="fill:none;stroke:#a9a9a9;stroke-width:2.25;stroke-linecap:round;stroke-linejoin:round;stroke-miterlimit:10;stroke-dasharray:none;stroke-opacity:1"
       d="m 354,449.88 0.01,-0.16 0.08,-1.05 0.18,-2.51 0.29,-4.13 0.34,-5.54 0.35,-6.42 0.29,-6.72 0.19,-6.54 0.05,-6.08 -0.1,-5.51 -0.28,-4.95 -0.45,-4.47 -0.65,-4.13 -0.85,-3.9 -0.67,-2.46 -1.19,-3.74 -1.45,-3.76 -1.77,-3.89 -2.13,-4.14 -2.55,-4.48 -2.99,-4.9 -3.42,-5.3 -3.74,-5.58 -3.84,-5.59 -3.64,-5.18 -3.08,-4.32 -2.22,-3.07 -1.27,-1.75 -0.47,-0.63 -0.05,-0.07" /><path
       inkscape:connector-curvature="0"
       id="path106"
       style="fill:none;stroke:#a9a9a9;stroke-width:3;stroke-linecap:round;stroke-linejoin:round;stroke-miterlimit:10;stroke-dasharray:none;stroke-opacity:1"
       d="m 331.19,318.19 -0.29,0.03 -1.26,0.16 -1.57,0.26 -1.23,0.32 -0.98,0.44 -0.95,0.65 -1.14,1.01 -1.39,1.41 -1.12,1.18 -0.25,0.27" /><path
       inkscape:connector-curvature="0"
       id="path108"
       style="fill:none;stroke:#a9a9a9;stroke-width:1.5;stroke-linecap:round;stroke-linejoin:round;stroke-miterlimit:10;stroke-dasharray:none;stroke-opacity:1"
       d="m 291.69,614.38 0.11,-0.11 0.68,-0.7 1.66,-1.69 2.8,-2.89 3.84,-3.99 4.58,-4.84 4.94,-5.3 4.93,-5.42 4.66,-5.26 4.22,-4.98 3.73,-4.62 3.24,-4.31 2.79,-4.07 2.42,-3.91 2.1,-3.85 1.84,-3.87 1.64,-3.95 1.46,-4.13 1.3,-4.4 1.17,-4.8 1.06,-5.3 0.98,-5.89 0.91,-6.49 0.86,-7.03 0.78,-7.35 0.7,-7.31 0.59,-6.77 0.46,-5.7 0.31,-4.19 0.19,-2.55 0.07,-1.11 0.02,-0.21 v 0" /><path
       inkscape:connector-curvature="0"
       id="path110"
       style="fill:none;stroke:#a9a9a9;stroke-width:1.5;stroke-linecap:round;stroke-linejoin:round;stroke-miterlimit:10;stroke-dasharray:none;stroke-opacity:1"
       d="m 259.15,525.03 0.18,-0.03 1.12,-0.21 2.62,-0.51 4.18,-0.83 5.34,-1.11 5.86,-1.28 5.81,-1.36 5.38,-1.38 4.79,-1.38 4.21,-1.39 3.73,-1.46 3.36,-1.57 3.13,-1.72 0.56,-0.33 2.97,-1.93 2.93,-2.19 3,-2.54 3.17,-3 3.43,-3.5 3.71,-4.05 3.95,-4.48 3.99,-4.66 3.69,-4.42 3.01,-3.67 2.03,-2.49 1.01,-1.25 0.25,-0.32 0.01,-0.01" /><path
       inkscape:connector-curvature="0"
       id="path112"
       style="fill:none;stroke:#a9a9a9;stroke-width:1.5;stroke-linecap:round;stroke-linejoin:round;stroke-miterlimit:10;stroke-dasharray:none;stroke-opacity:1"
       d="m 297.8,409.74 0.09,0.2 0.61,1.18 1.34,2.6 2,3.77 2.34,4.27 2.37,4.15 2.24,3.67 2.09,3.09 2,2.6 2.01,2.23 1.53,1.47 2.21,1.86 2.47,1.77 2.9,1.78 3.43,1.86 4.03,1.99 4.49,2.08 4.52,2 3.86,1.66 2.57,1.08 1.1,0.46 0.15,0.06" /><path
       inkscape:connector-curvature="0"
       id="path114"
       style="fill:none;stroke:#a9a9a9;stroke-width:1.5;stroke-linecap:round;stroke-linejoin:round;stroke-miterlimit:10;stroke-dasharray:none;stroke-opacity:1"
       d="m 430.5,403.79 -0.19,0.07 -1.18,0.41 -2.66,0.97 -4.03,1.49 -4.84,1.85 -4.96,1.98 -4.6,1.96 -4.04,1.88 -3.47,1.8 -2.99,1.8 -2.65,1.87 -1.73,1.39 -2.32,2.11 -2.27,2.38 -2.3,2.77 -2.44,3.27 -2.63,3.85 -2.82,4.36 -2.88,4.65 -2.66,4.43 -2.11,3.58 -1.32,2.25 -0.52,0.92 -0.07,0.12" /><path
       inkscape:connector-curvature="0"
       id="path116"
       style="fill:none;stroke:#a9a9a9;stroke-width:1.5;stroke-linecap:round;stroke-linejoin:round;stroke-miterlimit:10;stroke-dasharray:none;stroke-opacity:1"
       d="m 374.34,394.83 -0.13,0.2 -0.77,1.16 -1.64,2.51 -2.24,3.51 -2.37,3.85 -2.12,3.65 -1.72,3.24 -1.31,2.88 -0.96,2.66 -0.62,2.32 -0.49,2.63 -0.28,2.83 -0.08,3.22 0.1,3.77 0.28,4.32 0.4,4.63 0.44,4.28 0.34,3.12 0.18,1.52 0.04,0.29 v 0" /><path
       inkscape:connector-curvature="0"
       id="path118"
       style="fill:none;stroke:#a9a9a9;stroke-width:1.5;stroke-linecap:round;stroke-linejoin:round;stroke-miterlimit:10;stroke-dasharray:none;stroke-opacity:1"
       d="m 217.01,453.92 0.15,0.07 0.94,0.44 2.27,1.04 3.77,1.72 5.06,2.27 5.92,2.59 6.23,2.66 6.13,2.5 5.75,2.23 5.28,1.88 4.8,1.52 4.42,1.19 4.14,0.88 4,0.6 3.03,0.3 3.95,0.2 4.06,-0.04 4.29,-0.28 4.65,-0.54 5.11,-0.81 5.66,-1.08 6.19,-1.34 6.57,-1.54 6.65,-1.65 6.23,-1.61 5.27,-1.4 3.84,-1.05 2.24,-0.62 0.89,-0.25 0.11,-0.03" /><path
       inkscape:connector-curvature="0"
       id="path120"
       style="fill:none;stroke:#a9a9a9;stroke-width:1.5;stroke-linecap:round;stroke-linejoin:round;stroke-miterlimit:10;stroke-dasharray:none;stroke-opacity:1"
       d="m 530.39,543.04 -0.1,-0.1 -0.65,-0.65 -1.59,-1.59 -2.76,-2.71 -3.91,-3.83 -4.87,-4.71 -5.51,-5.24 -5.8,-5.43 -5.79,-5.3 -5.58,-4.96 -5.27,-4.5 -4.93,-3.99 -4.62,-3.51 -4.37,-3.06 -4.22,-2.68 -4.15,-2.35 -4.17,-2.09 -1.27,-0.59 -4.25,-1.81 -4.42,-1.64 -4.69,-1.47 -5.05,-1.33 -5.53,-1.22 -6.09,-1.14 -6.69,-1.07 -7.27,-1.01 -7.75,-0.95 -7.98,-0.87 -7.82,-0.79 -7.18,-0.67 -6.05,-0.53 -4.54,-0.37 -2.89,-0.23 -1.41,-0.11 -0.37,-0.02 h -0.01" /><path
       inkscape:connector-curvature="0"
       id="path122"
       style="fill:none;stroke:#a9a9a9;stroke-width:2.25;stroke-linecap:round;stroke-linejoin:round;stroke-miterlimit:10;stroke-dasharray:none;stroke-opacity:1"
       d="m 465.17,595.14 -0.04,-0.15 -0.32,-0.91 -0.76,-2.22 -1.31,-3.77 -1.85,-5.21 -2.28,-6.29 -2.54,-6.87 -2.67,-6.97 -2.67,-6.68 -2.61,-6.19 -2.52,-5.6 -2.44,-5 -2.42,-4.49 -2.44,-4.05 -2.52,-3.72 -2.65,-3.49 -0.68,-0.85 -2.84,-3.29 -3.08,-3.21 -3.39,-3.19 -3.8,-3.24 -4.3,-3.36 -4.85,-3.56 -5.42,-3.76 -5.93,-3.95 -6.3,-4.06 -6.34,-3.99 -5.99,-3.69 -5.16,-3.14 -3.93,-2.36 -2.53,-1.51 -1.23,-0.72 -0.31,-0.19 h -0.01" /><path
       inkscape:connector-curvature="0"
       id="path124"
       style="fill:none;stroke:#a9a9a9;stroke-width:2.25;stroke-linecap:round;stroke-linejoin:round;stroke-miterlimit:10;stroke-dasharray:none;stroke-opacity:1"
       d="m 244.33,392.53 0.1,0.13 0.64,0.85 1.54,2.03 2.55,3.31 3.4,4.36 3.95,4.99 4.16,5.12 4.09,4.88 3.87,4.42 3.61,3.88 3.37,3.36 3.22,2.91 3.15,2.53 3.18,2.25 1.19,0.77 3.31,1.97 3.52,1.82 3.84,1.71 4.29,1.66 4.84,1.64 5.45,1.66 6.02,1.68 6.41,1.67 6.42,1.59 5.91,1.4 4.81,1.11 3.29,0.74 1.72,0.38 0.51,0.11 h 0.02" /><path
       inkscape:connector-curvature="0"
       id="path126"
       style="fill:none;stroke:#a9a9a9;stroke-width:1.5;stroke-linecap:round;stroke-linejoin:round;stroke-miterlimit:10;stroke-dasharray:none;stroke-opacity:1"
       d="m 384.44,620 0.03,-0.16 0.19,-0.98 0.45,-2.36 0.74,-3.98 0.99,-5.46 1.13,-6.52 1.16,-7.04 1.07,-7.06 0.91,-6.73 0.71,-6.22 0.48,-5.67 0.26,-5.14 0.01,-4.72 -0.21,-4.42 -0.45,-4.24 -0.41,-2.69 -0.8,-4.11 -1.05,-4.16 -1.34,-4.31 -1.67,-4.57 -2.04,-4.94 -2.43,-5.38 -2.82,-5.85 -3.15,-6.24 -3.37,-6.43 -3.37,-6.28 -3.09,-5.66 -2.55,-4.6 -1.8,-3.2 -1.01,-1.79 -0.37,-0.64 -0.04,-0.06" /><path
       inkscape:connector-curvature="0"
       id="path128"
       style="fill:none;stroke:#a9a9a9;stroke-width:4.5;stroke-linecap:round;stroke-linejoin:round;stroke-miterlimit:10;stroke-dasharray:none;stroke-opacity:1"
       d="m 357.01,333.1 -0.06,0.16 -0.37,1.02 -0.87,2.41 -1.39,3.95 -1.81,5.22 -2.01,5.99 -2,6.18 -1.82,5.97 -1.55,5.52 -1.24,5 -0.93,4.53 -0.63,4.17 -0.36,3.94 -0.11,3.83 v 0.65 l 0.15,3.8 0.38,3.89 0.66,4.11 0.94,4.46 1.26,4.91 1.58,5.44 1.86,5.92 2.07,6.22 2.13,6.15 1.98,5.53 1.59,4.39 1.07,2.88 0.52,1.39 0.13,0.34 v 0.01" /><path
       inkscape:connector-curvature="0"
       id="path130"
       style="fill:none;stroke:#a9a9a9;stroke-width:1.5;stroke-linecap:round;stroke-linejoin:round;stroke-miterlimit:10;stroke-dasharray:none;stroke-opacity:1"
       d="m 398.98,383.81 0.11,0.13 0.69,0.81 1.66,1.92 2.74,3.15 3.66,4.16 4.25,4.74 4.47,4.87 4.4,4.64 4.14,4.2 3.85,3.68 3.59,3.17 3.39,2.72 3.31,2.35 3.32,2.07 1.35,0.76 3.43,1.77 3.62,1.61 3.95,1.48 4.39,1.4 4.93,1.35 5.54,1.32 6.12,1.32 6.51,1.28 6.53,1.21 6.02,1.05 4.91,0.82 3.38,0.55 1.78,0.28 0.55,0.09 h 0.02" /><path
       inkscape:connector-curvature="0"
       id="path132"
       style="fill:none;stroke:#a9a9a9;stroke-width:1.5;stroke-linecap:round;stroke-linejoin:round;stroke-miterlimit:10;stroke-dasharray:none;stroke-opacity:1"
       d="m 373.74,462.73 0.15,0.04 1.01,0.22 2.41,0.54 4.02,0.88 5.43,1.16 6.38,1.3 6.76,1.31 6.68,1.2 6.29,1.02 5.75,0.78 5.2,0.53 4.74,0.29 4.37,0.04 4.15,-0.2 4.03,-0.43 0.14,-0.02 3.98,-0.65 4.03,-0.9 4.2,-1.18 4.49,-1.52 4.88,-1.87 5.35,-2.25 5.82,-2.62 6.18,-2.92 6.28,-3.06 5.96,-2.99 5.15,-2.62 3.89,-2.01 2.42,-1.27 1.09,-0.58 0.22,-0.11 h 0.01" /><path
       inkscape:connector-curvature="0"
       id="path134"
       style="fill:none;stroke:#a9a9a9;stroke-width:1.5;stroke-linecap:round;stroke-linejoin:round;stroke-miterlimit:10;stroke-dasharray:none;stroke-opacity:1"
       d="m 257.14,231.65 0.1,0.15 0.65,0.98 1.51,2.26 2.4,3.55 3.06,4.43 3.36,4.76 3.37,4.59 3.18,4.14 2.96,3.59 2.77,3.07 2.66,2.62 2.67,2.29 2.01,1.53 2.83,1.91 3.06,1.79 3.42,1.71 3.92,1.71 4.5,1.75 5.1,1.81 5.55,1.84 5.62,1.78 5.11,1.55 3.96,1.18 2.43,0.71 0.98,0.28 0.13,0.03" /><path
       inkscape:connector-curvature="0"
       id="path136"
       style="fill:none;stroke:#a9a9a9;stroke-width:2.25;stroke-linecap:round;stroke-linejoin:round;stroke-miterlimit:10;stroke-dasharray:none;stroke-opacity:1"
       d="m 327.73,226.68 v 0.24 l -0.01,1.43 0.02,3.01 0.07,4.12 0.16,4.37 0.25,4.02 0.37,3.45 0.51,2.94 0.7,2.61 0.52,1.51 1.02,2.39 1.3,2.45 1.7,2.68 2.15,3.03 2.59,3.41 2.82,3.52 2.56,3.12 1.76,2.1 0.73,0.88 0.09,0.1" /><path
       inkscape:connector-curvature="0"
       id="path138"
       style="fill:none;stroke:#a9a9a9;stroke-width:2.25;stroke-linecap:round;stroke-linejoin:round;stroke-miterlimit:10;stroke-dasharray:none;stroke-opacity:1"
       d="m 431.21,396.32 -0.05,-0.18 -0.38,-1.14 -0.87,-2.61 -1.39,-4.06 -1.78,-5.03 -1.96,-5.36 -1.99,-5.14 -1.92,-4.63 -1.86,-4.03 -1.82,-3.5 -1.86,-3.07 -1.96,-2.78 -0.92,-1.19 -2.18,-2.53 -2.44,-2.47 -2.82,-2.5 -3.3,-2.64 -3.85,-2.83 -4.41,-3.04 -4.8,-3.17 -4.81,-3.09 -4.28,-2.68 -3.17,-1.96 -1.79,-1.09 -0.6,-0.36 -0.04,-0.02" /><path
       inkscape:connector-curvature="0"
       id="path140"
       style="fill:none;stroke:#a9a9a9;stroke-width:1.5;stroke-linecap:round;stroke-linejoin:round;stroke-miterlimit:10;stroke-dasharray:none;stroke-opacity:1"
       d="m 279.15,292.27 0.22,0.12 1.28,0.71 2.65,1.46 3.57,1.89 3.73,1.89 3.41,1.59 2.97,1.21 2.64,0.85 2.5,0.55 0.62,0.1 2.49,0.25 2.69,0.04 3.09,-0.19 3.64,-0.42 4.15,-0.62 4.26,-0.73 3.59,-0.66 2.16,-0.42 0.68,-0.13 0.03,-0.01" /><path
       inkscape:connector-curvature="0"
       id="path142"
       style="fill:none;stroke:#a9a9a9;stroke-width:2.25;stroke-linecap:round;stroke-linejoin:round;stroke-miterlimit:10;stroke-dasharray:none;stroke-opacity:1"
       d="m 244.12,386.61 0.17,-0.05 1.06,-0.29 2.5,-0.72 4.05,-1.19 5.28,-1.58 5.93,-1.84 6.01,-1.95 5.67,-1.96 5.13,-1.91 4.53,-1.86 3.98,-1.85 3.55,-1.89 3.24,-2 2.51,-1.75 2.92,-2.29 2.85,-2.53 2.89,-2.88 3,-3.34 3.2,-3.86 3.44,-4.42 3.66,-4.92 3.74,-5.22 3.6,-5.13 3.12,-4.53 2.34,-3.45 1.41,-2.11 0.58,-0.87 0.08,-0.13" /><path
       inkscape:connector-curvature="0"
       id="path144"
       style="fill:#a9a9a9;fill-opacity:1;fill-rule:nonzero;stroke:#a9a9a9;stroke-width:0.75;stroke-linecap:round;stroke-linejoin:round;stroke-miterlimit:10;stroke-dasharray:none;stroke-opacity:1"
       d="m 457.18,186.8 1.22,-0.96 1.26,-1.06 1.31,-1.21 1.4,-1.41 1.52,-1.73 1.77,-2.34 3.25,-6.06 0.17,0.07 -1.81,6.63 -0.33,2.91 -0.09,2.3 0.04,1.99 0.12,1.78 0.18,1.65 0.23,1.53 z" /><path
       inkscape:connector-curvature="0"
       id="path146"
       style="fill:#a9a9a9;fill-opacity:1;fill-rule:nonzero;stroke:#a9a9a9;stroke-width:0.75;stroke-linecap:round;stroke-linejoin:round;stroke-miterlimit:10;stroke-dasharray:none;stroke-opacity:1"
       d="m 414.49,317.6 1.06,-1.13 1.09,-1.24 1.13,-1.39 1.17,-1.6 1.25,-1.94 1.41,-2.57 2.32,-6.47 0.18,0.05 -0.82,6.82 0.1,2.93 0.26,2.29 0.33,1.96 0.38,1.74 0.42,1.6 0.45,1.48 z" /><path
       inkscape:connector-curvature="0"
       id="path148"
       style="fill:#a9a9a9;fill-opacity:1;fill-rule:nonzero;stroke:#a9a9a9;stroke-width:0.75;stroke-linecap:round;stroke-linejoin:round;stroke-miterlimit:10;stroke-dasharray:none;stroke-opacity:1"
       d="m 403.62,300.59 1.53,0.19 1.64,0.15 1.79,0.08 h 1.99 l 2.3,-0.13 2.91,-0.38 6.59,-1.95 0.07,0.17 -5.99,3.37 -2.31,1.81 -1.69,1.56 -1.39,1.43 -1.18,1.34 -1.04,1.28 -0.94,1.23 z" /><path
       inkscape:connector-curvature="0"
       id="path150"
       style="fill:#a9a9a9;fill-opacity:1;fill-rule:nonzero;stroke:#a9a9a9;stroke-width:0.75;stroke-linecap:round;stroke-linejoin:round;stroke-miterlimit:10;stroke-dasharray:none;stroke-opacity:1"
       d="m 265.86,400.33 1.45,0.55 1.57,0.52 1.72,0.5 1.93,0.46 2.27,0.4 2.91,0.3 6.87,-0.37 0.03,0.18 -6.61,1.89 -2.66,1.23 -2.01,1.13 -1.68,1.06 -1.46,1.03 -1.31,1.01 -1.19,0.98 z" /><path
       inkscape:connector-curvature="0"
       id="path152"
       style="fill:#a9a9a9;fill-opacity:1;fill-rule:nonzero;stroke:#a9a9a9;stroke-width:0.75;stroke-linecap:round;stroke-linejoin:round;stroke-miterlimit:10;stroke-dasharray:none;stroke-opacity:1"
       d="m 284.66,428.77 0.72,-1.37 0.71,-1.49 0.71,-1.64 0.7,-1.86 0.68,-2.2 0.66,-2.86 0.49,-6.85 0.18,-0.01 1.06,6.79 0.89,2.79 0.86,2.14 0.85,1.8 0.84,1.57 0.83,1.43 0.83,1.31 z" /><path
       inkscape:connector-curvature="0"
       id="path154"
       style="fill:#a9a9a9;fill-opacity:1;fill-rule:nonzero;stroke:#a9a9a9;stroke-width:0.75;stroke-linecap:round;stroke-linejoin:round;stroke-miterlimit:10;stroke-dasharray:none;stroke-opacity:1"
       d="m 317.1,402.57 -1.53,-0.25 -1.63,-0.22 -1.78,-0.16 -1.99,-0.08 -2.3,0.03 -2.92,0.26 -6.67,1.67 -0.06,-0.17 6.12,-3.12 2.38,-1.71 1.76,-1.49 1.45,-1.36 1.24,-1.29 1.09,-1.24 0.98,-1.19 z" /><path
       inkscape:connector-curvature="0"
       id="path156"
       style="fill:#a9a9a9;fill-opacity:1;fill-rule:nonzero;stroke:#a9a9a9;stroke-width:0.75;stroke-linecap:round;stroke-linejoin:round;stroke-miterlimit:10;stroke-dasharray:none;stroke-opacity:1"
       d="m 315.49,394.85 -1.53,0.21 -1.63,0.29 -1.74,0.38 -1.92,0.51 -2.19,0.73 -2.7,1.13 -5.86,3.59 -0.11,-0.14 4.9,-4.81 1.75,-2.35 1.24,-1.95 0.96,-1.74 0.8,-1.6 0.67,-1.5 0.58,-1.44 z" /><path
       inkscape:connector-curvature="0"
       id="path158"
       style="fill:#a9a9a9;fill-opacity:1;fill-rule:nonzero;stroke:#a9a9a9;stroke-width:0.75;stroke-linecap:round;stroke-linejoin:round;stroke-miterlimit:10;stroke-dasharray:none;stroke-opacity:1"
       d="m 269.77,417.93 1.45,-0.54 1.53,-0.62 1.62,-0.75 1.77,-0.92 1.98,-1.17 2.4,-1.69 4.95,-4.76 0.14,0.11 -3.76,5.76 -1.21,2.67 -0.79,2.16 -0.57,1.91 -0.43,1.73 -0.34,1.62 -0.25,1.52 z" /><path
       inkscape:connector-curvature="0"
       id="path160"
       style="fill:#a9a9a9;fill-opacity:1;fill-rule:nonzero;stroke:#a9a9a9;stroke-width:0.75;stroke-linecap:round;stroke-linejoin:round;stroke-miterlimit:10;stroke-dasharray:none;stroke-opacity:1"
       d="m 286.88,378.53 -0.07,1.55 -0.01,1.65 0.06,1.79 0.15,1.98 0.32,2.28 0.61,2.87 2.46,6.41 -0.16,0.09 -3.83,-5.7 -1.99,-2.16 -1.69,-1.57 -1.53,-1.26 -1.43,-1.08 -1.36,-0.93 -1.31,-0.83 z" /><path
       inkscape:connector-curvature="0"
       id="path162"
       style="fill:#a9a9a9;fill-opacity:1;fill-rule:nonzero;stroke:#a9a9a9;stroke-width:0.75;stroke-linecap:round;stroke-linejoin:round;stroke-miterlimit:10;stroke-dasharray:none;stroke-opacity:1"
       d="m 310.78,420.85 -0.92,-1.25 -1.02,-1.3 -1.16,-1.35 -1.37,-1.45 -1.67,-1.58 -2.28,-1.85 -5.94,-3.46 0.08,-0.16 6.56,2.04 2.9,0.43 2.3,0.16 1.98,0.03 1.79,-0.06 1.65,-0.12 1.53,-0.17 z" /><path
       inkscape:connector-curvature="0"
       id="path164"
       style="fill:#a9a9a9;fill-opacity:1;fill-rule:nonzero;stroke:#a9a9a9;stroke-width:0.75;stroke-linecap:round;stroke-linejoin:round;stroke-miterlimit:10;stroke-dasharray:none;stroke-opacity:1"
       d="m 304.94,382 -1.08,1.11 -1.11,1.22 -1.15,1.37 -1.2,1.58 -1.29,1.91 -1.45,2.55 -2.44,6.43 -0.17,-0.05 0.93,-6.81 -0.05,-2.93 -0.21,-2.29 -0.3,-1.97 -0.35,-1.75 -0.39,-1.6 -0.42,-1.49 z" /><path
       inkscape:connector-curvature="0"
       id="path166"
       style="fill:#a9a9a9;fill-opacity:1;fill-rule:nonzero;stroke:#a9a9a9;stroke-width:0.75;stroke-linecap:round;stroke-linejoin:round;stroke-miterlimit:10;stroke-dasharray:none;stroke-opacity:1"
       d="m 399.78,339.15 -1.07,1.12 -1.09,1.24 -1.12,1.39 -1.17,1.61 -1.26,1.93 -1.4,2.57 -2.33,6.47 -0.17,-0.04 0.82,-6.82 -0.11,-2.93 -0.25,-2.29 -0.33,-1.96 -0.39,-1.75 -0.41,-1.6 -0.45,-1.48 z" /><path
       inkscape:connector-curvature="0"
       id="path168"
       style="fill:#a9a9a9;fill-opacity:1;fill-rule:nonzero;stroke:#a9a9a9;stroke-width:0.75;stroke-linecap:round;stroke-linejoin:round;stroke-miterlimit:10;stroke-dasharray:none;stroke-opacity:1"
       d="m 347.76,349.23 1.02,1.17 1.12,1.21 1.27,1.26 1.48,1.33 1.79,1.44 2.42,1.66 6.2,2.97 -0.06,0.17 -6.7,-1.51 -2.93,-0.19 -2.3,0.02 -1.99,0.13 -1.77,0.21 -1.63,0.25 -1.52,0.29 z" /><path
       inkscape:connector-curvature="0"
       id="path170"
       style="fill:#a9a9a9;fill-opacity:1;fill-rule:nonzero;stroke:#a9a9a9;stroke-width:0.75;stroke-linecap:round;stroke-linejoin:round;stroke-miterlimit:10;stroke-dasharray:none;stroke-opacity:1"
       d="m 371.08,411.6 0.64,-1.41 0.62,-1.53 0.61,-1.68 0.59,-1.9 0.55,-2.24 0.48,-2.89 0.09,-6.87 0.18,-0.02 1.45,6.72 1.06,2.73 0.99,2.08 0.95,1.75 0.93,1.52 0.92,1.38 0.91,1.25 z" /><path
       inkscape:connector-curvature="0"
       id="path172"
       style="fill:#a9a9a9;fill-opacity:1;fill-rule:nonzero;stroke:#a9a9a9;stroke-width:0.75;stroke-linecap:round;stroke-linejoin:round;stroke-miterlimit:10;stroke-dasharray:none;stroke-opacity:1"
       d="m 220.58,316.12 1.23,0.95 1.34,0.96 1.49,0.98 1.71,1.02 2.05,1.05 2.69,1.15 6.67,1.69 -0.03,0.18 -6.87,-0.15 -2.9,0.38 -2.26,0.48 -1.92,0.52 -1.7,0.55 -1.55,0.57 -1.43,0.59 z" /><path
       inkscape:connector-curvature="0"
       id="path174"
       style="fill:#a9a9a9;fill-opacity:1;fill-rule:nonzero;stroke:#a9a9a9;stroke-width:0.75;stroke-linecap:round;stroke-linejoin:round;stroke-miterlimit:10;stroke-dasharray:none;stroke-opacity:1"
       d="m 219.17,343.84 1.53,-0.2 1.63,-0.28 1.75,-0.37 1.92,-0.5 2.19,-0.71 2.71,-1.11 5.89,-3.55 0.11,0.14 -4.94,4.78 -1.77,2.34 -1.25,1.94 -0.98,1.73 -0.8,1.59 -0.68,1.5 -0.59,1.44 z" /><path
       inkscape:connector-curvature="0"
       id="path176"
       style="fill:#a9a9a9;fill-opacity:1;fill-rule:nonzero;stroke:#a9a9a9;stroke-width:0.75;stroke-linecap:round;stroke-linejoin:round;stroke-miterlimit:10;stroke-dasharray:none;stroke-opacity:1"
       d="m 251.6,295.64 -0.26,1.53 -0.23,1.63 -0.18,1.78 -0.09,1.98 0.01,2.31 0.25,2.92 1.62,6.68 -0.17,0.06 -3.08,-6.15 -1.69,-2.39 -1.48,-1.77 -1.35,-1.45 -1.28,-1.25 -1.23,-1.1 -1.19,-0.99 z" /><path
       inkscape:connector-curvature="0"
       id="path178"
       style="fill:#a9a9a9;fill-opacity:1;fill-rule:nonzero;stroke:#a9a9a9;stroke-width:0.75;stroke-linecap:round;stroke-linejoin:round;stroke-miterlimit:10;stroke-dasharray:none;stroke-opacity:1"
       d="m 271.95,300.91 -1.07,1.12 -1.1,1.23 -1.13,1.38 -1.19,1.6 -1.27,1.92 -1.42,2.57 -2.37,6.45 -0.18,-0.05 0.87,-6.81 -0.08,-2.93 -0.24,-2.3 -0.32,-1.96 -0.37,-1.75 -0.4,-1.6 -0.44,-1.48 z" /><path
       inkscape:connector-curvature="0"
       id="path180"
       style="fill:#a9a9a9;fill-opacity:1;fill-rule:nonzero;stroke:#a9a9a9;stroke-width:0.75;stroke-linecap:round;stroke-linejoin:round;stroke-miterlimit:10;stroke-dasharray:none;stroke-opacity:1"
       d="m 288.41,324.21 h -1.55 l -1.64,0.05 -1.79,0.13 -1.97,0.24 -2.27,0.41 -2.84,0.74 -6.3,2.72 -0.09,-0.15 5.53,-4.07 2.07,-2.08 1.5,-1.75 1.2,-1.59 1.01,-1.47 0.88,-1.4 0.78,-1.33 z" /><path
       inkscape:connector-curvature="0"
       id="path182"
       style="fill:#a9a9a9;fill-opacity:1;fill-rule:nonzero;stroke:#a9a9a9;stroke-width:0.75;stroke-linecap:round;stroke-linejoin:round;stroke-miterlimit:10;stroke-dasharray:none;stroke-opacity:1"
       d="m 270.36,363.37 -0.42,-1.49 -0.52,-1.57 -0.62,-1.67 -0.78,-1.83 -1.03,-2.06 -1.5,-2.52 -4.38,-5.3 0.12,-0.13 5.46,4.18 2.57,1.4 2.1,0.95 1.86,0.71 1.7,0.56 1.58,0.46 1.51,0.37 z" /><path
       inkscape:connector-curvature="0"
       id="path184"
       style="fill:#a9a9a9;fill-opacity:1;fill-rule:nonzero;stroke:#a9a9a9;stroke-width:0.75;stroke-linecap:round;stroke-linejoin:round;stroke-miterlimit:10;stroke-dasharray:none;stroke-opacity:1"
       d="m 287.58,342.34 -1.34,-0.76 -1.47,-0.76 -1.62,-0.75 -1.84,-0.76 -2.18,-0.75 -2.83,-0.74 -6.84,-0.71 v -0.18 l 6.82,-0.84 2.82,-0.81 2.16,-0.8 1.82,-0.79 1.61,-0.79 1.44,-0.79 1.34,-0.79 z" /><path
       inkscape:connector-curvature="0"
       id="path186"
       style="fill:#a9a9a9;fill-opacity:1;fill-rule:nonzero;stroke:#a9a9a9;stroke-width:0.75;stroke-linecap:round;stroke-linejoin:round;stroke-miterlimit:10;stroke-dasharray:none;stroke-opacity:1"
       d="m 242.05,366.01 0.78,-1.34 0.77,-1.45 0.78,-1.61 0.78,-1.83 0.78,-2.17 0.78,-2.83 0.79,-6.82 h 0.18 l 0.76,6.83 0.77,2.83 0.77,2.17 0.77,1.83 0.77,1.61 0.77,1.46 0.77,1.35 z" /><path
       inkscape:connector-curvature="0"
       id="path188"
       style="fill:#a9a9a9;fill-opacity:1;fill-rule:nonzero;stroke:#a9a9a9;stroke-width:0.75;stroke-linecap:round;stroke-linejoin:round;stroke-miterlimit:10;stroke-dasharray:none;stroke-opacity:1"
       d="m 269.47,299.52 -0.99,1.19 -1,1.31 -1.03,1.46 -1.07,1.68 -1.13,2.01 -1.23,2.66 -1.89,6.61 -0.18,-0.03 0.37,-6.86 -0.3,-2.92 -0.4,-2.27 -0.46,-1.93 -0.5,-1.72 -0.52,-1.57 -0.54,-1.45 z" /><path
       inkscape:connector-curvature="0"
       id="path190"
       style="fill:#a9a9a9;fill-opacity:1;fill-rule:nonzero;stroke:#a9a9a9;stroke-width:0.75;stroke-linecap:round;stroke-linejoin:round;stroke-miterlimit:10;stroke-dasharray:none;stroke-opacity:1"
       d="m 288.99,327.87 -1.53,-0.17 -1.65,-0.13 -1.79,-0.06 -1.98,0.03 -2.3,0.16 -2.9,0.43 -6.57,2.03 -0.07,-0.16 5.94,-3.45 2.28,-1.85 1.68,-1.58 1.36,-1.44 1.17,-1.36 1.02,-1.3 0.92,-1.24 z" /><path
       inkscape:connector-curvature="0"
       id="path192"
       style="fill:#a9a9a9;fill-opacity:1;fill-rule:nonzero;stroke:#a9a9a9;stroke-width:0.75;stroke-linecap:round;stroke-linejoin:round;stroke-miterlimit:10;stroke-dasharray:none;stroke-opacity:1"
       d="m 275.94,359.62 -0.7,-1.38 -0.8,-1.44 -0.94,-1.53 -1.11,-1.64 -1.4,-1.83 -1.95,-2.19 -5.31,-4.37 0.1,-0.15 6.15,3.07 2.79,0.89 2.25,0.53 1.95,0.34 1.78,0.23 1.64,0.14 1.55,0.08 z" /><path
       inkscape:connector-curvature="0"
       id="path194"
       style="fill:#a9a9a9;fill-opacity:1;fill-rule:nonzero;stroke:#a9a9a9;stroke-width:0.75;stroke-linecap:round;stroke-linejoin:round;stroke-miterlimit:10;stroke-dasharray:none;stroke-opacity:1"
       d="m 245.57,366.95 0.64,-1.4 0.63,-1.53 0.62,-1.68 0.59,-1.9 0.56,-2.23 0.5,-2.89 0.11,-6.87 0.18,-0.02 1.43,6.72 1.04,2.74 0.98,2.09 0.95,1.74 0.93,1.53 0.91,1.38 0.9,1.26 z" /><path
       inkscape:connector-curvature="0"
       id="path196"
       style="fill:#a9a9a9;fill-opacity:1;fill-rule:nonzero;stroke:#a9a9a9;stroke-width:0.75;stroke-linecap:round;stroke-linejoin:round;stroke-miterlimit:10;stroke-dasharray:none;stroke-opacity:1"
       d="m 287.81,321.77 -1.55,0.1 -1.64,0.17 -1.77,0.25 -1.95,0.37 -2.24,0.56 -2.78,0.92 -6.11,3.15 -0.1,-0.15 5.25,-4.43 1.93,-2.22 1.37,-1.85 1.09,-1.66 0.92,-1.53 0.78,-1.46 0.68,-1.38 z" /><path
       inkscape:connector-curvature="0"
       id="path198"
       style="fill:#a9a9a9;fill-opacity:1;fill-rule:nonzero;stroke:#a9a9a9;stroke-width:0.75;stroke-linecap:round;stroke-linejoin:round;stroke-miterlimit:10;stroke-dasharray:none;stroke-opacity:1"
       d="m 304.96,307.51 0.6,1.42 0.7,1.5 0.82,1.59 1,1.71 1.27,1.93 1.79,2.32 4.99,4.72 -0.11,0.15 -5.92,-3.49 -2.73,-1.08 -2.2,-0.69 -1.92,-0.48 -1.76,-0.35 -1.63,-0.26 -1.53,-0.19 z" /><path
       inkscape:connector-curvature="0"
       id="path200"
       style="fill:#a9a9a9;fill-opacity:1;fill-rule:nonzero;stroke:#a9a9a9;stroke-width:0.75;stroke-linecap:round;stroke-linejoin:round;stroke-miterlimit:10;stroke-dasharray:none;stroke-opacity:1"
       d="m 318.83,303.3 -0.4,1.5 -0.36,1.61 -0.33,1.75 -0.27,1.97 -0.18,2.3 -0.01,2.93 1.04,6.8 -0.18,0.04 -2.53,-6.39 -1.48,-2.52 -1.32,-1.9 -1.22,-1.56 -1.17,-1.35 -1.13,-1.21 -1.1,-1.09 z" /><path
       inkscape:connector-curvature="0"
       id="path202"
       style="fill:#a9a9a9;fill-opacity:1;fill-rule:nonzero;stroke:#a9a9a9;stroke-width:0.75;stroke-linecap:round;stroke-linejoin:round;stroke-miterlimit:10;stroke-dasharray:none;stroke-opacity:1"
       d="m 311.45,346.94 0.77,-1.34 0.77,-1.46 0.77,-1.61 0.77,-1.83 0.77,-2.17 0.76,-2.84 0.76,-6.83 H 317 l 0.79,6.83 0.78,2.83 0.78,2.17 0.78,1.82 0.78,1.61 0.78,1.46 0.78,1.34 z" /><path
       inkscape:connector-curvature="0"
       id="path204"
       style="fill:#a9a9a9;fill-opacity:1;fill-rule:nonzero;stroke:#a9a9a9;stroke-width:0.75;stroke-linecap:round;stroke-linejoin:round;stroke-miterlimit:10;stroke-dasharray:none;stroke-opacity:1"
       d="m 335.94,338.92 -1,-1.18 -1.12,-1.21 -1.26,-1.27 -1.47,-1.34 -1.79,-1.45 -2.41,-1.67 -6.18,-3 0.06,-0.17 6.7,1.54 2.92,0.21 2.31,-0.01 1.98,-0.12 1.78,-0.19 1.63,-0.25 1.52,-0.28 z" /><path
       inkscape:connector-curvature="0"
       id="path206"
       style="fill:#a9a9a9;fill-opacity:1;fill-rule:nonzero;stroke:#a9a9a9;stroke-width:0.75;stroke-linecap:round;stroke-linejoin:round;stroke-miterlimit:10;stroke-dasharray:none;stroke-opacity:1"
       d="m 324.81,346.88 -0.13,-1.55 -0.2,-1.63 -0.29,-1.77 -0.42,-1.94 -0.61,-2.22 -0.98,-2.77 -3.28,-6.04 0.15,-0.1 4.54,5.15 2.26,1.88 1.88,1.33 1.68,1.06 1.56,0.88 1.47,0.75 1.4,0.65 z" /><path
       inkscape:connector-curvature="0"
       id="path208"
       style="fill:#a9a9a9;fill-opacity:1;fill-rule:nonzero;stroke:#a9a9a9;stroke-width:0.75;stroke-linecap:round;stroke-linejoin:round;stroke-miterlimit:10;stroke-dasharray:none;stroke-opacity:1"
       d="m 337.52,314.75 -1.48,0.43 -1.57,0.51 -1.68,0.62 -1.83,0.78 -2.06,1.02 -2.52,1.5 -5.3,4.38 -0.13,-0.13 4.18,-5.45 1.41,-2.57 0.95,-2.1 0.71,-1.86 0.57,-1.69 0.45,-1.59 0.37,-1.5 z" /><path
       inkscape:connector-curvature="0"
       id="path210"
       style="fill:#a9a9a9;fill-opacity:1;fill-rule:nonzero;stroke:#a9a9a9;stroke-width:0.75;stroke-linecap:round;stroke-linejoin:round;stroke-miterlimit:10;stroke-dasharray:none;stroke-opacity:1"
       d="m 345.64,494.9 0.89,-1.27 0.9,-1.38 0.91,-1.54 0.94,-1.76 0.96,-2.09 1.02,-2.75 1.38,-6.73 0.18,0.01 0.16,6.87 0.53,2.89 0.57,2.23 0.61,1.89 0.63,1.68 0.65,1.52 0.65,1.4 z" /><path
       inkscape:connector-curvature="0"
       id="path212"
       style="fill:#a9a9a9;fill-opacity:1;fill-rule:nonzero;stroke:#a9a9a9;stroke-width:0.75;stroke-linecap:round;stroke-linejoin:round;stroke-miterlimit:10;stroke-dasharray:none;stroke-opacity:1"
       d="m 330.72,482.23 1.45,-0.52 1.53,-0.62 1.63,-0.73 1.77,-0.9 1.99,-1.17 2.42,-1.66 4.99,-4.73 0.14,0.12 -3.81,5.72 -1.23,2.67 -0.8,2.15 -0.59,1.9 -0.45,1.73 -0.34,1.62 -0.27,1.52 z" /><path
       inkscape:connector-curvature="0"
       id="path214"
       style="fill:#a9a9a9;fill-opacity:1;fill-rule:nonzero;stroke:#a9a9a9;stroke-width:0.75;stroke-linecap:round;stroke-linejoin:round;stroke-miterlimit:10;stroke-dasharray:none;stroke-opacity:1"
       d="m 333.84,443.25 0.91,1.25 1.02,1.3 1.17,1.35 1.36,1.45 1.67,1.58 2.28,1.85 5.94,3.46 -0.07,0.17 -6.57,-2.05 -2.9,-0.43 -2.29,-0.16 -1.99,-0.03 -1.79,0.06 -1.64,0.12 -1.54,0.17 z" /><path
       inkscape:connector-curvature="0"
       id="path216"
       style="fill:#a9a9a9;fill-opacity:1;fill-rule:nonzero;stroke:#a9a9a9;stroke-width:0.75;stroke-linecap:round;stroke-linejoin:round;stroke-miterlimit:10;stroke-dasharray:none;stroke-opacity:1"
       d="m 382.93,443.39 -1.36,0.74 -1.42,0.84 -1.5,0.97 -1.61,1.16 -1.8,1.45 -2.13,2.02 -4.21,5.43 -0.16,-0.1 2.9,-6.23 0.81,-2.82 0.46,-2.26 0.29,-1.96 0.18,-1.78 0.1,-1.65 0.04,-1.55 z" /><path
       inkscape:connector-curvature="0"
       id="path218"
       style="fill:#a9a9a9;fill-opacity:1;fill-rule:nonzero;stroke:#a9a9a9;stroke-width:0.75;stroke-linecap:round;stroke-linejoin:round;stroke-miterlimit:10;stroke-dasharray:none;stroke-opacity:1"
       d="m 365.05,432.9 -0.63,1.41 -0.62,1.52 -0.61,1.69 -0.59,1.89 -0.55,2.24 -0.49,2.89 -0.08,6.87 -0.18,0.02 -1.46,-6.71 -1.05,-2.74 -0.99,-2.08 -0.96,-1.74 -0.93,-1.53 -0.91,-1.37 -0.91,-1.26 z" /><path
       inkscape:connector-curvature="0"
       id="path220"
       style="fill:#a9a9a9;fill-opacity:1;fill-rule:nonzero;stroke:#a9a9a9;stroke-width:0.75;stroke-linecap:round;stroke-linejoin:round;stroke-miterlimit:10;stroke-dasharray:none;stroke-opacity:1"
       d="m 325.74,462.92 1.49,0.41 1.61,0.39 1.75,0.35 1.97,0.3 2.29,0.21 2.93,0.05 6.81,-0.95 0.04,0.18 -6.42,2.44 -2.54,1.45 -1.92,1.29 -1.58,1.21 -1.36,1.15 -1.22,1.11 -1.11,1.08 z" /><path
       inkscape:connector-curvature="0"
       id="path222"
       style="fill:#a9a9a9;fill-opacity:1;fill-rule:nonzero;stroke:#a9a9a9;stroke-width:0.75;stroke-linecap:round;stroke-linejoin:round;stroke-miterlimit:10;stroke-dasharray:none;stroke-opacity:1"
       d="m 388.28,477.78 -1.26,-0.9 -1.38,-0.92 -1.52,-0.93 -1.75,-0.95 -2.08,-0.98 -2.74,-1.05 -6.72,-1.44 0.02,-0.18 6.87,-0.1 2.89,-0.49 2.24,-0.56 1.89,-0.59 1.68,-0.61 1.53,-0.63 1.41,-0.64 z" /><path
       inkscape:connector-curvature="0"
       id="path224"
       style="fill:#a9a9a9;fill-opacity:1;fill-rule:nonzero;stroke:#a9a9a9;stroke-width:0.75;stroke-linecap:round;stroke-linejoin:round;stroke-miterlimit:10;stroke-dasharray:none;stroke-opacity:1"
       d="m 379.51,489.65 -0.73,-1.37 -0.84,-1.42 -0.96,-1.51 -1.15,-1.62 -1.44,-1.8 -2,-2.14 -5.4,-4.25 0.1,-0.16 6.21,2.94 2.82,0.82 2.25,0.49 1.96,0.3 1.78,0.19 1.65,0.11 1.54,0.04 z" /><path
       inkscape:connector-curvature="0"
       id="path226"
       style="fill:#a9a9a9;fill-opacity:1;fill-rule:nonzero;stroke:#a9a9a9;stroke-width:0.75;stroke-linecap:round;stroke-linejoin:round;stroke-miterlimit:10;stroke-dasharray:none;stroke-opacity:1"
       d="m 330.44,447.88 1.12,1.06 1.23,1.1 1.39,1.13 1.6,1.18 1.93,1.26 2.56,1.41 6.46,2.35 -0.04,0.18 -6.82,-0.85 -2.93,0.09 -2.29,0.25 -1.96,0.32 -1.75,0.38 -1.6,0.41 -1.48,0.44 z" /><path
       inkscape:connector-curvature="0"
       id="path228"
       style="fill:#a9a9a9;fill-opacity:1;fill-rule:nonzero;stroke:#a9a9a9;stroke-width:0.75;stroke-linecap:round;stroke-linejoin:round;stroke-miterlimit:10;stroke-dasharray:none;stroke-opacity:1"
       d="m 364.3,496.91 0.05,-1.55 -0.01,-1.65 -0.08,-1.78 -0.19,-1.98 -0.34,-2.28 -0.66,-2.86 -2.55,-6.38 0.16,-0.09 3.92,5.65 2.02,2.13 1.71,1.54 1.54,1.25 1.45,1.05 1.37,0.92 1.32,0.81 z" /><path
       inkscape:connector-curvature="0"
       id="path230"
       style="fill:#a9a9a9;fill-opacity:1;fill-rule:nonzero;stroke:#a9a9a9;stroke-width:0.75;stroke-linecap:round;stroke-linejoin:round;stroke-miterlimit:10;stroke-dasharray:none;stroke-opacity:1"
       d="m 357.37,432.21 -0.29,1.52 -0.24,1.63 -0.2,1.78 -0.12,1.98 v 2.31 l 0.21,2.92 1.54,6.7 -0.17,0.06 -3,-6.18 -1.67,-2.41 -1.46,-1.79 -1.34,-1.47 -1.26,-1.26 -1.22,-1.12 -1.17,-1 z" /><path
       inkscape:connector-curvature="0"
       id="path232"
       style="fill:#a9a9a9;fill-opacity:1;fill-rule:nonzero;stroke:#a9a9a9;stroke-width:0.75;stroke-linecap:round;stroke-linejoin:round;stroke-miterlimit:10;stroke-dasharray:none;stroke-opacity:1"
       d="m 488.77,434.12 1.18,1 1.3,1.02 1.45,1.04 1.67,1.08 2,1.15 2.65,1.25 6.59,1.96 -0.03,0.18 -6.86,-0.43 -2.92,0.26 -2.27,0.39 -1.94,0.44 -1.72,0.48 -1.57,0.51 -1.46,0.52 z" /><path
       inkscape:connector-curvature="0"
       id="path234"
       style="fill:#a9a9a9;fill-opacity:1;fill-rule:nonzero;stroke:#a9a9a9;stroke-width:0.75;stroke-linecap:round;stroke-linejoin:round;stroke-miterlimit:10;stroke-dasharray:none;stroke-opacity:1"
       d="m 486.57,447.97 1.54,0.09 1.65,0.05 1.79,-0.03 1.99,-0.12 2.28,-0.28 2.88,-0.57 6.46,-2.36 0.08,0.17 -5.77,3.74 -2.18,1.95 -1.6,1.66 -1.29,1.51 -1.1,1.42 -0.96,1.34 -0.85,1.29 z" /><path
       inkscape:connector-curvature="0"
       id="path236"
       style="fill:#a9a9a9;fill-opacity:1;fill-rule:nonzero;stroke:#a9a9a9;stroke-width:0.75;stroke-linecap:round;stroke-linejoin:round;stroke-miterlimit:10;stroke-dasharray:none;stroke-opacity:1"
       d="m 318.82,277.05 1.05,1.14 1.17,1.17 1.31,1.21 1.52,1.28 1.84,1.39 2.47,1.57 6.29,2.77 -0.05,0.17 -6.75,-1.28 -2.93,-0.1 -2.3,0.09 -1.98,0.2 -1.77,0.26 -1.62,0.31 -1.51,0.35 z" /><path
       inkscape:connector-curvature="0"
       id="path238"
       style="fill:#a9a9a9;fill-opacity:1;fill-rule:nonzero;stroke:#a9a9a9;stroke-width:0.75;stroke-linecap:round;stroke-linejoin:round;stroke-miterlimit:10;stroke-dasharray:none;stroke-opacity:1"
       d="m 340.01,260.52 0.24,1.53 0.31,1.62 0.41,1.75 0.54,1.91 0.76,2.17 1.16,2.69 3.68,5.81 -0.14,0.11 -4.88,-4.83 -2.38,-1.72 -1.96,-1.21 -1.75,-0.94 -1.62,-0.77 -1.51,-0.65 -1.45,-0.56 z" /><path
       inkscape:connector-curvature="0"
       id="path240"
       style="fill:#a9a9a9;fill-opacity:1;fill-rule:nonzero;stroke:#a9a9a9;stroke-width:0.75;stroke-linecap:round;stroke-linejoin:round;stroke-miterlimit:10;stroke-dasharray:none;stroke-opacity:1"
       d="m 386.26,339.55 -0.72,-1.37 -0.81,-1.43 -0.95,-1.52 -1.13,-1.64 -1.41,-1.81 -1.98,-2.17 -5.35,-4.32 0.1,-0.15 6.18,3.01 2.8,0.86 2.25,0.51 1.96,0.33 1.78,0.21 1.64,0.13 1.55,0.06 z" /><path
       inkscape:connector-curvature="0"
       id="path242"
       style="fill:#a9a9a9;fill-opacity:1;fill-rule:nonzero;stroke:#a9a9a9;stroke-width:0.75;stroke-linecap:round;stroke-linejoin:round;stroke-miterlimit:10;stroke-dasharray:none;stroke-opacity:1"
       d="m 310.78,297.4 1.45,0.53 1.57,0.52 1.72,0.48 1.93,0.46 2.27,0.39 2.92,0.28 6.86,-0.4 0.03,0.18 -6.6,1.93 -2.65,1.24 -2.01,1.13 -1.67,1.08 -1.46,1.03 -1.3,1.01 -1.19,1 z" /><path
       inkscape:connector-curvature="0"
       id="path244"
       style="fill:#a9a9a9;fill-opacity:1;fill-rule:nonzero;stroke:#a9a9a9;stroke-width:0.75;stroke-linecap:round;stroke-linejoin:round;stroke-miterlimit:10;stroke-dasharray:none;stroke-opacity:1"
       d="m 319.67,331.7 1.4,-0.65 1.47,-0.75 1.56,-0.87 1.69,-1.05 1.88,-1.33 2.26,-1.87 4.56,-5.14 0.15,0.1 -3.3,6.03 -0.99,2.76 -0.61,2.22 -0.42,1.95 -0.3,1.76 -0.2,1.64 -0.14,1.54 z" /><path
       inkscape:connector-curvature="0"
       id="path246"
       style="fill:#ff4500;fill-opacity:1;fill-rule:nonzero;stroke:#000000;stroke-width:0.75;stroke-linecap:round;stroke-linejoin:round;stroke-miterlimit:10;stroke-dasharray:none;stroke-opacity:1"
       d="m 329.22,303.8 c 0,15.12 12.37,27.5 27.5,27.5 15.12,0 27.5,-12.38 27.5,-27.5 0,-15.13 -12.38,-27.5 -27.5,-27.5 -15.13,0 -27.5,12.37 -27.5,27.5" /><path
       inkscape:connector-curvature="0"
       id="path248"
       style="fill:#ff4500;fill-opacity:1;fill-rule:nonzero;stroke:#000000;stroke-width:0.75;stroke-linecap:round;stroke-linejoin:round;stroke-miterlimit:10;stroke-dasharray:none;stroke-opacity:1"
       d="m 358.72,372.97 c 0,11.34 9.28,20.62 20.63,20.62 11.34,0 20.62,-9.28 20.62,-20.62 0,-11.35 -9.28,-20.63 -20.62,-20.63 -11.35,0 -20.63,9.28 -20.63,20.63" /><path
       inkscape:connector-curvature="0"
       id="path250"
       style="fill:#ff4500;fill-opacity:1;fill-rule:nonzero;stroke:#000000;stroke-width:0.75;stroke-linecap:round;stroke-linejoin:round;stroke-miterlimit:10;stroke-dasharray:none;stroke-opacity:1"
       d="m 118.79,375.97 c 0,1.9 1.55,3.44 3.44,3.44 1.89,0 3.43,-1.54 3.43,-3.44 0,-1.89 -1.54,-3.43 -3.43,-3.43 -1.89,0 -3.44,1.54 -3.44,3.43" /><path
       inkscape:connector-curvature="0"
       id="path252"
       style="fill:#ff4500;fill-opacity:1;fill-rule:nonzero;stroke:#000000;stroke-width:0.75;stroke-linecap:round;stroke-linejoin:round;stroke-miterlimit:10;stroke-dasharray:none;stroke-opacity:1"
       d="m 251.23,527.76 c 0,1.89 1.55,3.43 3.44,3.43 1.89,0 3.44,-1.54 3.44,-3.43 0,-1.9 -1.55,-3.44 -3.44,-3.44 -1.89,0 -3.44,1.54 -3.44,3.44" /><path
       inkscape:connector-curvature="0"
       id="path254"
       style="fill:#43cd80;fill-opacity:1;fill-rule:nonzero;stroke:#000000;stroke-width:0.75;stroke-linecap:round;stroke-linejoin:round;stroke-miterlimit:10;stroke-dasharray:none;stroke-opacity:1"
       d="m 431.07,400.4 c 0,1.89 1.54,3.44 3.43,3.44 1.89,0 3.44,-1.55 3.44,-3.44 0,-1.89 -1.55,-3.44 -3.44,-3.44 -1.89,0 -3.43,1.55 -3.43,3.44" /><path
       inkscape:connector-curvature="0"
       id="path256"
       style="fill:#eead0e;fill-opacity:1;fill-rule:nonzero;stroke:#000000;stroke-width:0.75;stroke-linecap:round;stroke-linejoin:round;stroke-miterlimit:10;stroke-dasharray:none;stroke-opacity:1"
       d="m 208.34,453.51 c 0,1.89 1.55,3.44 3.44,3.44 1.89,0 3.44,-1.55 3.44,-3.44 0,-1.89 -1.55,-3.44 -3.44,-3.44 -1.89,0 -3.44,1.55 -3.44,3.44" /><path
       inkscape:connector-curvature="0"
       id="path258"
       style="fill:#006ff9;fill-opacity:1;fill-rule:nonzero;stroke:#000000;stroke-width:0.75;stroke-linecap:round;stroke-linejoin:round;stroke-miterlimit:10;stroke-dasharray:none;stroke-opacity:1"
       d="m 270.53,291.49 c 0,1.9 1.54,3.44 3.43,3.44 1.89,0 3.44,-1.54 3.44,-3.44 0,-1.89 -1.55,-3.43 -3.44,-3.43 -1.89,0 -3.43,1.54 -3.43,3.43" /><path
       inkscape:connector-curvature="0"
       id="path260"
       style="fill:#ff4500;fill-opacity:1;fill-rule:nonzero;stroke:#000000;stroke-width:0.75;stroke-linecap:round;stroke-linejoin:round;stroke-miterlimit:10;stroke-dasharray:none;stroke-opacity:1"
       d="m 344.57,464.83 c 0,7.56 6.19,13.75 13.75,13.75 7.56,0 13.75,-6.19 13.75,-13.75 0,-7.57 -6.19,-13.75 -13.75,-13.75 -7.56,0 -13.75,6.18 -13.75,13.75" /><path
       inkscape:connector-curvature="0"
       id="path262"
       style="fill:#006ff9;fill-opacity:1;fill-rule:nonzero;stroke:#000000;stroke-width:0.75;stroke-linecap:round;stroke-linejoin:round;stroke-miterlimit:10;stroke-dasharray:none;stroke-opacity:1"
       d="m 422.39,298.37 c 0,1.89 1.55,3.43 3.44,3.43 1.89,0 3.44,-1.54 3.44,-3.43 0,-1.89 -1.55,-3.44 -3.44,-3.44 -1.89,0 -3.44,1.55 -3.44,3.44" /><path
       inkscape:connector-curvature="0"
       id="path264"
       style="fill:#006ff9;fill-opacity:1;fill-rule:nonzero;stroke:#000000;stroke-width:0.75;stroke-linecap:round;stroke-linejoin:round;stroke-miterlimit:10;stroke-dasharray:none;stroke-opacity:1"
       d="m 73.4,243.7 c 0,1.89 1.54,3.44 3.43,3.44 1.89,0 3.44,-1.55 3.44,-3.44 0,-1.89 -1.55,-3.44 -3.44,-3.44 -1.89,0 -3.43,1.55 -3.43,3.44" /><path
       inkscape:connector-curvature="0"
       id="path266"
       style="fill:#ff4500;fill-opacity:1;fill-rule:nonzero;stroke:#000000;stroke-width:0.75;stroke-linecap:round;stroke-linejoin:round;stroke-miterlimit:10;stroke-dasharray:none;stroke-opacity:1"
       d="m 243.23,226.55 c 0,3.78 3.1,6.88 6.88,6.88 3.78,0 6.87,-3.1 6.87,-6.88 0,-3.78 -3.09,-6.87 -6.87,-6.87 -3.78,0 -6.88,3.09 -6.88,6.87" /><path
       inkscape:connector-curvature="0"
       id="path268"
       style="fill:#006ff9;fill-opacity:1;fill-rule:nonzero;stroke:#000000;stroke-width:0.75;stroke-linecap:round;stroke-linejoin:round;stroke-miterlimit:10;stroke-dasharray:none;stroke-opacity:1"
       d="m 317.8,218.56 c 0,3.78 3.09,6.87 6.87,6.87 3.78,0 6.88,-3.09 6.88,-6.87 0,-3.79 -3.1,-6.88 -6.88,-6.88 -3.78,0 -6.87,3.09 -6.87,6.88" /><path
       inkscape:connector-curvature="0"
       id="path270"
       style="fill:#006ff9;fill-opacity:1;fill-rule:nonzero;stroke:#000000;stroke-width:0.75;stroke-linecap:round;stroke-linejoin:round;stroke-miterlimit:10;stroke-dasharray:none;stroke-opacity:1"
       d="m 284.5,403.9 c 0,3.78 3.09,6.88 6.88,6.88 3.78,0 6.87,-3.1 6.87,-6.88 0,-3.78 -3.09,-6.87 -6.87,-6.87 -3.79,0 -6.88,3.09 -6.88,6.87" /><path
       inkscape:connector-curvature="0"
       id="path272"
       style="fill:#006ff9;fill-opacity:1;fill-rule:nonzero;stroke:#000000;stroke-width:0.75;stroke-linecap:round;stroke-linejoin:round;stroke-miterlimit:10;stroke-dasharray:none;stroke-opacity:1"
       d="m 235.94,331.68 c 0,9.45 7.73,17.19 17.18,17.19 9.46,0 17.19,-7.74 17.19,-17.19 0,-9.45 -7.73,-17.19 -17.19,-17.19 -9.45,0 -17.18,7.74 -17.18,17.19" /><path
       inkscape:connector-curvature="0"
       id="path274"
       style="fill:#006ff9;fill-opacity:1;fill-rule:nonzero;stroke:#000000;stroke-width:0.75;stroke-linecap:round;stroke-linejoin:round;stroke-miterlimit:10;stroke-dasharray:none;stroke-opacity:1"
       d="m 314.58,325.61 c 0,1.89 1.55,3.44 3.44,3.44 1.89,0 3.44,-1.55 3.44,-3.44 0,-1.89 -1.55,-3.44 -3.44,-3.44 -1.89,0 -3.44,1.55 -3.44,3.44" /><path
       inkscape:connector-curvature="0"
       id="path276"
       style="fill:#ff4500;fill-opacity:1;fill-rule:nonzero;stroke:#000000;stroke-width:0.75;stroke-linecap:round;stroke-linejoin:round;stroke-miterlimit:10;stroke-dasharray:none;stroke-opacity:1"
       d="m 236.46,389.72 c 0,1.89 1.55,3.44 3.44,3.44 1.89,0 3.44,-1.55 3.44,-3.44 0,-1.89 -1.55,-3.44 -3.44,-3.44 -1.89,0 -3.44,1.55 -3.44,3.44" /><path
       inkscape:connector-curvature="0"
       id="path278"
       style="fill:#006ff9;fill-opacity:1;fill-rule:nonzero;stroke:#000000;stroke-width:0.75;stroke-linecap:round;stroke-linejoin:round;stroke-miterlimit:10;stroke-dasharray:none;stroke-opacity:1"
       d="m 286.12,619.17 c 0,1.89 1.54,3.44 3.43,3.44 1.89,0 3.44,-1.55 3.44,-3.44 0,-1.89 -1.55,-3.44 -3.44,-3.44 -1.89,0 -3.43,1.55 -3.43,3.44" /><path
       inkscape:connector-curvature="0"
       id="path280"
       style="fill:#43cd80;fill-opacity:1;fill-rule:nonzero;stroke:#000000;stroke-width:0.75;stroke-linecap:round;stroke-linejoin:round;stroke-miterlimit:10;stroke-dasharray:none;stroke-opacity:1"
       d="m 531.73,545.21 c 0,1.89 1.55,3.44 3.44,3.44 1.89,0 3.43,-1.55 3.43,-3.44 0,-1.89 -1.54,-3.44 -3.43,-3.44 -1.89,0 -3.44,1.55 -3.44,3.44" /><path
       inkscape:connector-curvature="0"
       id="path282"
       style="fill:#ff4500;fill-opacity:1;fill-rule:nonzero;stroke:#000000;stroke-width:0.75;stroke-linecap:round;stroke-linejoin:round;stroke-miterlimit:10;stroke-dasharray:none;stroke-opacity:1"
       d="m 465.06,599.19 c 0,1.89 1.55,3.44 3.44,3.44 1.89,0 3.44,-1.55 3.44,-3.44 0,-1.89 -1.55,-3.44 -3.44,-3.44 -1.89,0 -3.44,1.55 -3.44,3.44" /><path
       inkscape:connector-curvature="0"
       id="path284"
       style="fill:#006ff9;fill-opacity:1;fill-rule:nonzero;stroke:#000000;stroke-width:0.75;stroke-linecap:round;stroke-linejoin:round;stroke-miterlimit:10;stroke-dasharray:none;stroke-opacity:1"
       d="m 381.87,625.17 c 0,1.89 1.55,3.43 3.44,3.43 1.89,0 3.44,-1.54 3.44,-3.43 0,-1.89 -1.55,-3.44 -3.44,-3.44 -1.89,0 -3.44,1.55 -3.44,3.44" /><path
       inkscape:connector-curvature="0"
       id="path286"
       style="fill:#eead0e;fill-opacity:1;fill-rule:nonzero;stroke:#000000;stroke-width:0.75;stroke-linecap:round;stroke-linejoin:round;stroke-miterlimit:10;stroke-dasharray:none;stroke-opacity:1"
       d="m 466.58,166.83 c 0,3.78 3.09,6.88 6.87,6.88 3.79,0 6.88,-3.1 6.88,-6.88 0,-3.78 -3.09,-6.87 -6.88,-6.87 -3.78,0 -6.87,3.09 -6.87,6.87" /><path
       inkscape:connector-curvature="0"
       id="path288"
       style="fill:#006ff9;fill-opacity:1;fill-rule:nonzero;stroke:#000000;stroke-width:0.75;stroke-linecap:round;stroke-linejoin:round;stroke-miterlimit:10;stroke-dasharray:none;stroke-opacity:1"
       d="m 505.16,444.37 c 0,1.89 1.55,3.44 3.44,3.44 1.89,0 3.44,-1.55 3.44,-3.44 0,-1.89 -1.55,-3.44 -3.44,-3.44 -1.89,0 -3.44,1.55 -3.44,3.44" /><text
       id="text292"
       style="font-variant:normal;font-weight:normal;font-size:8px;font-family:'Times New Roman';-inkscape-font-specification:Times-Roman;writing-mode:lr-tb;fill:#00008b;fill-opacity:1;fill-rule:nonzero;stroke:none"
       transform="scale(1,-1)"
       x="333.94"
       y="-301.12"><tspan
         id="tspan290"
         sodipodi:role="line"
         y="-301.12"
         x="333.94 339.716 342.38 346.38 349.93201 353.93201 355.93201 360.38 362.604 366.604 370.604 372.828 376.38">Urban Studies</tspan></text>
<text
       id="text296"
       style="font-variant:normal;font-weight:normal;font-size:8px;font-family:'Times New Roman';-inkscape-font-specification:Times-Roman;writing-mode:lr-tb;fill:#00008b;fill-opacity:1;fill-rule:nonzero;stroke:none"
       transform="scale(1,-1)"
       x="334.42001"
       y="-371.10999"><tspan
         id="tspan294"
         sodipodi:role="line"
         y="-371.10999"
         x="334.42001 337.53201 341.53201 345.53201 348.19601 352.19598 355.74799 357.97198 359.97198 363.97198 366.63599 368.63599 373.97198 377.40399 381.40399 383.62799 387.62799 391.62799 395.17999 397.40399 399.40399 403.85199 407.40399 409.62799 413.17999 417.17999 420.73199">Journal of Regional Science</tspan></text>
<text
       id="text300"
       style="font-variant:normal;font-weight:normal;font-size:8px;font-family:'Times New Roman';-inkscape-font-specification:Times-Roman;writing-mode:lr-tb;fill:#00008b;fill-opacity:1;fill-rule:nonzero;stroke:none"
       transform="scale(1,-1)"
       x="112.89"
       y="-373.29999"><tspan
         id="tspan298"
         sodipodi:role="line"
         y="-373.29999"
         x="112.89 118.226 120.45 122.674 124.898 128.45">Cities</tspan></text>
<text
       id="text304"
       style="font-variant:normal;font-weight:normal;font-size:8px;font-family:'Times New Roman';-inkscape-font-specification:Times-Roman;writing-mode:lr-tb;fill:#00008b;fill-opacity:1;fill-rule:nonzero;stroke:none"
       transform="scale(1,-1)"
       x="211.34"
       y="-525.90002"><tspan
         id="tspan302"
         sodipodi:role="line"
         y="-525.90002"
         x="211.34 216.228 220.228 222.892 226.892 230.892 234.444 237.996 241.996 243.996 248.444 250.668 254.22 258.22 262.22 264.444 268.444 272.444 274.444 278.892 281.116 285.116 289.116 291.34 294.892">European Planning Studies</tspan></text>
<text
       id="text308"
       style="font-variant:normal;font-weight:normal;font-size:8px;font-family:'Times New Roman';-inkscape-font-specification:Times-Roman;writing-mode:lr-tb;fill:#00008b;fill-opacity:1;fill-rule:nonzero;stroke:none"
       transform="scale(1,-1)"
       x="373.51001"
       y="-397.73001"><tspan
         id="tspan306"
         sodipodi:role="line"
         y="-397.73001"
         x="373.51001 376.62201 380.62201 384.62201 387.28601 391.28601 394.83801 397.06201 399.06201 403.06201 405.72601 407.72601 414.83801 418.39001 420.61401 424.61401 428.16599 434.39001 437.94199 440.16599 442.38998 445.94199 449.05399 451.05399 454.60599 458.60599 462.60599 464.60599 469.05399 471.27798 474.82999 477.05399 479.27798 482.38998 484.61398 486.83801 490.38998 493.50198">Journal of Mathematics and Statistics </tspan></text>
<text
       id="text312"
       style="font-variant:normal;font-weight:normal;font-size:8px;font-family:'Times New Roman';-inkscape-font-specification:Times-Roman;writing-mode:lr-tb;fill:#00008b;fill-opacity:1;fill-rule:nonzero;stroke:none"
       transform="scale(1,-1)"
       x="171.02"
       y="-451.64999"><tspan
         id="tspan310"
         sodipodi:role="line"
         y="-451.64999"
         x="171.02 178.132 180.356 183.468 187.02 190.57201 192.79601 195.02 198.57201 202.57201 206.12399 209.67599 211.67599 217.452 221.004 225.004 229.004 231.668 235.22 239.22 243.22 245.444 248.996">Miscellanea Geographica</tspan></text>
<text
       id="text316"
       style="font-variant:normal;font-weight:normal;font-size:8px;font-family:'Times New Roman';-inkscape-font-specification:Times-Roman;writing-mode:lr-tb;fill:#00008b;fill-opacity:1;fill-rule:nonzero;stroke:none"
       transform="scale(1,-1)"
       x="221.32001"
       y="-289.63"><tspan
         id="tspan314"
         sodipodi:role="line"
         y="-289.63"
         x="221.32001 227.09599 231.09599 234.64799 238.64799 242.2 244.864 248.864 251.088 253.088 257.60001 259.60001 266.51199 270.51199 273.17599 277.17599 279.39999 283.39999 287.39999 289.39999 293.728 297.28 301.28 304.832 307.496 309.496 315.272 319.72 324.608">Quaderni  Working Paper DSE </tspan></text>
<text
       id="text320"
       style="font-variant:normal;font-weight:normal;font-size:8px;font-family:'Times New Roman';-inkscape-font-specification:Times-Roman;writing-mode:lr-tb;fill:#00008b;fill-opacity:1;fill-rule:nonzero;stroke:none"
       transform="scale(1,-1)"
       x="293.95001"
       y="-462.97"><tspan
         id="tspan318"
         sodipodi:role="line"
         y="-462.97"
         x="293.95001 299.28601 302.71799 306.71799 308.94199 312.94199 316.94199 320.49399 322.71799 324.71799 329.16599 332.71799 334.94199 338.49399 342.49399 346.04599 349.59799 351.59799 355.14999 359.14999 363.14999 365.14999 370.92599 373.59 377.59 381.142 385.142 387.142 392.03 395.582 399.582 403.582 407.582 413.806 416.03 419.582">Regional Science and Urban Economics</tspan></text>
<text
       id="text324"
       style="font-variant:normal;font-weight:normal;font-size:8px;font-family:'Times New Roman';-inkscape-font-specification:Times-Roman;writing-mode:lr-tb;fill:#00008b;fill-opacity:1;fill-rule:nonzero;stroke:none"
       transform="scale(1,-1)"
       x="357.72"
       y="-295.69"><tspan
         id="tspan322"
         sodipodi:role="line"
         y="-295.69"
         x="357.72 360.832 364.832 368.832 371.496 375.496 379.048 381.272 383.272 387.272 389.936 391.936 397.272 401.272 404.384 406.608 410.608 414.16 417.272 420.384 422.384 428.608 430.608 435.496 439.048 443.048 447.048 451.048 457.272 459.496 463.048 465.048 469.496 471.72 475.272 477.496 479.72 482.832 485.056 487.28 490.832">Journal of Business &amp; Economic Statistics</tspan></text>
<text
       id="text328"
       style="font-variant:normal;font-weight:normal;font-size:8px;font-family:'Times New Roman';-inkscape-font-specification:Times-Roman;writing-mode:lr-tb;fill:#00008b;fill-opacity:1;fill-rule:nonzero;stroke:none"
       transform="scale(1,-1)"
       x="1.1799999"
       y="-241.84"><tspan
         id="tspan326"
         sodipodi:role="line"
         y="-241.84"
         x="1.1799999 6.9559999 13.18 16.732 19.396 21.620001 25.172001 28.724001 32.723999 34.723999 37.835999 41.835999 45.835999 48.5 52.5 56.052002 58.276001 60.276001 64.276001 66.940002 68.940002 73.828003 77.379997 81.379997 85.379997 89.379997 95.604004 97.828003 101.38 104.492 106.492 110.044 114.044 118.044 120.044 124.492 128.49199 132.04399 134.26799 138.26799 140.49199 144.49199 148.49199">American Journal of Economics and Sociology</tspan></text>
<text
       id="text332"
       style="font-variant:normal;font-weight:normal;font-size:8px;font-family:'Times New Roman';-inkscape-font-specification:Times-Roman;writing-mode:lr-tb;fill:#00008b;fill-opacity:1;fill-rule:nonzero;stroke:none"
       transform="scale(1,-1)"
       x="159.96001"
       y="-224.69"><tspan
         id="tspan330"
         sodipodi:role="line"
         y="-224.69"
         x="159.96001 165.29601 169.29601 173.29601 177.29601 179.96001 183.51199 186.62399 189.73599 191.73599 195.73601 198.39999 200.39999 202.62401 206.62401 210.17599 212.17599 217.064 221.064 223.728 227.728 231.728 235.28 238.832 242.832 244.832 250.168 253.60001 257.60001 259.82401 263.82401 267.82401 271.37601 273.60001 275.60001 280.048 283.60001 285.82401 289.37601 293.37601 296.92801 300.48001 302.48001 308.25601 311.36801 314.48001 318.48001 322.03201 324.25601 327.80801 330.03201 332.25601 336.25601">Congress of the European Regional Science Association</tspan></text>
<text
       id="text336"
       style="font-variant:normal;font-weight:normal;font-size:8px;font-family:'Times New Roman';-inkscape-font-specification:Times-Roman;writing-mode:lr-tb;fill:#00008b;fill-opacity:1;fill-rule:nonzero;stroke:none"
       transform="scale(1,-1)"
       x="294.79001"
       y="-215.86"><tspan
         id="tspan334"
         sodipodi:role="line"
         y="-215.86"
         x="294.79001 299.67801 303.23001 307.23001 311.23001 315.23001 321.45401 323.67801 327.23001 330.34201 332.34201 337.23001 340.78201 343.00601 345.23001 348.78201 351.44598">Economics Letters</tspan></text>
<text
       id="text340"
       style="font-variant:normal;font-weight:normal;font-size:8px;font-family:'Times New Roman';-inkscape-font-specification:Times-Roman;writing-mode:lr-tb;fill:#00008b;fill-opacity:1;fill-rule:nonzero;stroke:none"
       transform="scale(1,-1)"
       x="239.3"
       y="-402.04001"><tspan
         id="tspan338"
         sodipodi:role="line"
         y="-402.04001"
         x="239.3 242.412 246.412 250.412 253.076 257.07599 260.62799 262.85199 264.85199 268.85199 271.51599 273.51599 278.40399 281.95599 285.95599 289.95599 293.95599 300.17999 302.40399 305.95599 307.95599 313.73199 317.284 321.284 325.284 327.948 331.5 335.5 339.45999">Journal of Economic Geography</tspan></text>
<text
       id="text344"
       style="font-variant:normal;font-weight:normal;font-size:8px;font-family:'Times New Roman';-inkscape-font-specification:Times-Roman;writing-mode:lr-tb;fill:#00008b;fill-opacity:1;fill-rule:nonzero;stroke:none"
       transform="scale(1,-1)"
       x="207.24001"
       y="-329.01001"><tspan
         id="tspan342"
         sodipodi:role="line"
         y="-329.01001"
         x="207.24001 210.35201 214.35201 218.35201 221.01601 225.01601 228.56799 230.79201 232.79201 236.79201 239.45599 241.45599 247.23199 249.896 253.896 257.448 261.448 263.448 268.336 271.888 275.888 279.888 283.888 290.112 292.336 295.888">Journal of Urban Economics</tspan></text>
<text
       id="text348"
       style="font-variant:normal;font-weight:normal;font-size:8px;font-family:'Times New Roman';-inkscape-font-specification:Times-Roman;writing-mode:lr-tb;fill:#00008b;fill-opacity:1;fill-rule:nonzero;stroke:none"
       transform="scale(1,-1)"
       x="266.81"
       y="-323.75"><tspan
         id="tspan346"
         sodipodi:role="line"
         y="-323.75"
         x="266.81 272.586 276.586 280.138 282.802 285.026 288.578 291.242 293.466 297.466 299.466 302.578 306.578 310.578 313.242 317.242 320.79401 323.01801 325.01801 329.01801 331.68201 333.68201 338.57001 342.12201 346.12201 350.12201 354.12201 360.34601 362.57001 366.12201">Quarterly Journal of Economics</tspan></text>
<text
       id="text352"
       style="font-variant:normal;font-weight:normal;font-size:8px;font-family:'Times New Roman';-inkscape-font-specification:Times-Roman;writing-mode:lr-tb;fill:#00008b;fill-opacity:1;fill-rule:nonzero;stroke:none"
       transform="scale(1,-1)"
       x="212.74001"
       y="-387.85999"><tspan
         id="tspan350"
         sodipodi:role="line"
         y="-387.85999"
         x="212.74001 218.076 221.508 225.508 227.73199 231.73199 235.73199 239.284 241.508 243.508 247.95599 250.17999 254.17999 258.17999 260.40399 263.95599">Regional Studies</tspan></text>
<text
       id="text356"
       style="font-variant:normal;font-weight:normal;font-size:8px;font-family:'Times New Roman';-inkscape-font-specification:Times-Roman;writing-mode:lr-tb;fill:#00008b;fill-opacity:1;fill-rule:nonzero;stroke:none"
       transform="scale(1,-1)"
       x="255"
       y="-617.29999"><tspan
         id="tspan354"
         sodipodi:role="line"
         y="-617.29999"
         x="255 259.888 266.112 270.112 272.336 275 277.224 280.776 284.328 286.552 288.552 293.44 296.992 300.992 304.992 308.992 315.216 317.44 320.992">Empirical Economics</tspan></text>
<text
       id="text360"
       style="font-variant:normal;font-weight:normal;font-size:8px;font-family:'Times New Roman';-inkscape-font-specification:Times-Roman;writing-mode:lr-tb;fill:#00008b;fill-opacity:1;fill-rule:nonzero;stroke:none"
       transform="scale(1,-1)"
       x="449.63"
       y="-543.34998"><tspan
         id="tspan358"
         sodipodi:role="line"
         y="-543.34998"
         x="449.63 454.078 458.03799 462.03799 465.14999 467.37399 470.92599 474.478 476.478 482.254 484.478 486.478 490.92599 493.14999 496.702 498.92599 501.14999 504.26199 506.48599 508.70999 512.26202 515.81403 518.03802 520.03802 527.15002 530.70203 534.25403 538.25403 541.80603 545.80603 548.03003 551.58203 554.69403 556.69403 560.24597 564.24597 568.24597 570.24597 572.46997 574.69403 577.80597 579.80597 585.58197 589.58197 593.58197 595.80597 598.02997 601.58197 605.13397 607.35797 609.58197 613.58197 617.58197">Physica A: Statistical Mechanics and its Applications</tspan></text>
<text
       id="text364"
       style="font-variant:normal;font-weight:normal;font-size:8px;font-family:'Times New Roman';-inkscape-font-specification:Times-Roman;writing-mode:lr-tb;fill:#00008b;fill-opacity:1;fill-rule:nonzero;stroke:none"
       transform="scale(1,-1)"
       x="425.95001"
       y="-597.33002"><tspan
         id="tspan362"
         sodipodi:role="line"
         y="-597.33002"
         x="425.95001 431.28601 434.71799 438.71799 440.94199 444.94199 448.94199 450.94199 454.49399 456.71799 458.71799 464.49399 467.84601 471.72601 475.27798 477.50198 481.50198 485.50198 489.50198 493.05399 499.27802 502.82999 506.82999 509.05399">Region et Developpement </tspan></text>
<text
       id="text368"
       style="font-variant:normal;font-weight:normal;font-size:8px;font-family:'Times New Roman';-inkscape-font-specification:Times-Roman;writing-mode:lr-tb;fill:#00008b;fill-opacity:1;fill-rule:nonzero;stroke:none"
       transform="scale(1,-1)"
       x="319.07001"
       y="-623.29999"><tspan
         id="tspan366"
         sodipodi:role="line"
         y="-623.29999"
         x="319.07001 323.39801 326.82999 330.82999 333.05399 337.05399 340.16602 342.16602 346.16602 349.71799 352.38199 355.93399 357.93399 363.70999 365.93399 369.04599 372.59799 376.59799 379.70999 382.82199 385.04599 389.04599 393.04599 395.04599 400.38199 403.93399 407.93399 411.48599 415.48599 417.70999 421.26199 423.92599 428.43799 434.21399 438.66202 445.77402">Textos para Discussion CedeplarUFMG</tspan></text>
<text
       id="text372"
       style="font-variant:normal;font-weight:normal;font-size:8px;font-family:'Times New Roman';-inkscape-font-specification:Times-Roman;writing-mode:lr-tb;fill:#00008b;fill-opacity:1;fill-rule:nonzero;stroke:none"
       transform="scale(1,-1)"
       x="426.84"
       y="-164.97"><tspan
         id="tspan370"
         sodipodi:role="line"
         y="-164.97"
         x="426.84 431.728 435.40799 439.40799 441.63199 444.29599 448.29599 452.29599 458.51999 462.07199 466.07199 468.29599 470.29599 473.84799 477.84799 481.84799 483.84799 488.29599 490.51999 494.07199 498.07199 502.07199 504.29599 508.29599 512.29602 514.29602">Environment and Planning A</tspan></text>
<text
       id="text376"
       style="font-variant:normal;font-weight:normal;font-size:8px;font-family:'Times New Roman';-inkscape-font-specification:Times-Roman;writing-mode:lr-tb;fill:#00008b;fill-opacity:1;fill-rule:nonzero;stroke:none"
       transform="scale(1,-1)"
       x="455.37"
       y="-441.70001"><tspan
         id="tspan374"
         sodipodi:role="line"
         y="-441.70001"
         x="455.37 460.258 464.258 467.81 469.81 475.586 481.81 485.362 488.026 490.25 493.802 497.354 501.354 503.354 508.242 511.79401 515.79401 519.79401 523.79401 530.01801 532.242 535.79401 537.79401 543.13 546.48199 550.48199 552.70599 556.05798">The American Economic Review</tspan></text>
<text
       y="-1288.6554"
       x="-1170.257"
       transform="scale(1,-1)"
       style="font-style:normal;font-variant:normal;font-weight:normal;font-stretch:normal;font-size:8px;font-family:'Times New Roman';-inkscape-font-specification:'Times New Roman, Normal';font-variant-ligatures:normal;font-variant-caps:normal;font-variant-numeric:normal;font-feature-settings:normal;text-align:start;writing-mode:lr-tb;text-anchor:start;fill:#000000;fill-opacity:1;fill-rule:nonzero;stroke:none"
       id="text7276"><tspan
         sodipodi:role="line"
         id="tspan7274"
         x="-1170.257"
         y="-1281.5544" /></text>
<g
       id="g8582"
       transform="translate(1154.5696,-674.22423)"><rect
         transform="scale(1,-1)"
         y="-1317.2295"
         x="-1199.4668"
         height="8.8124657"
         width="15.972593"
         id="rect7254"
         style="opacity:0.62171056;fill:#ffffff;fill-opacity:1;stroke:none;stroke-width:0.075;stroke-miterlimit:10;stroke-dasharray:none;stroke-opacity:0.6" /><rect
         transform="scale(1,-1)"
         y="-1278.417"
         x="-1200.0175"
         height="9.3632202"
         width="16.523338"
         id="rect7258"
         style="opacity:1;fill:#ff4500;fill-opacity:1;stroke:none;stroke-width:0.04539685;stroke-miterlimit:10;stroke-dasharray:none;stroke-opacity:0.6" /><rect
         style="opacity:1;fill:#43cd80;fill-opacity:1;stroke:none;stroke-width:0.04539685;stroke-miterlimit:10;stroke-dasharray:none;stroke-opacity:0.6"
         id="rect7260"
         width="16.523338"
         height="9.3632202"
         x="-1200.0175"
         y="-1263.417"
         transform="scale(1,-1)" /><rect
         transform="scale(1,-1)"
         y="-1308.417"
         x="-1200.0175"
         height="9.3632202"
         width="16.523338"
         id="rect7262"
         style="opacity:1;fill:#006ff9;fill-opacity:1;stroke:none;stroke-width:0.04539685;stroke-miterlimit:10;stroke-dasharray:none;stroke-opacity:0.6" /><rect
         style="opacity:1;fill:#eead0e;fill-opacity:1;stroke:none;stroke-width:0.04539685;stroke-miterlimit:10;stroke-dasharray:none;stroke-opacity:0.6"
         id="rect7264"
         width="16.523338"
         height="9.3632202"
         x="-1200.0175"
         y="-1293.417"
         transform="scale(1,-1)" /><text
         id="text7268"
         style="font-style:normal;font-variant:normal;font-weight:normal;font-stretch:normal;font-size:8px;font-family:'Times New Roman';-inkscape-font-specification:'Times New Roman, Normal';font-variant-ligatures:normal;font-variant-caps:normal;font-variant-numeric:normal;font-feature-settings:normal;text-align:start;writing-mode:lr-tb;text-anchor:start;fill:#000000;fill-opacity:1;fill-rule:nonzero;stroke:none"
         transform="scale(1,-1)"
         x="-1177.757"
         y="-1271.2142"><tspan
           y="-1271.2142"
           x="-1177.757"
           id="tspan7266"
           sodipodi:role="line">Regional sc. / Urban </tspan></text>
<text
         y="-1256.2142"
         x="-1177.757"
         transform="scale(1,-1)"
         style="font-style:normal;font-variant:normal;font-weight:normal;font-stretch:normal;font-size:8px;font-family:'Times New Roman';-inkscape-font-specification:'Times New Roman, Normal';font-variant-ligatures:normal;font-variant-caps:normal;font-variant-numeric:normal;font-feature-settings:normal;text-align:start;writing-mode:lr-tb;text-anchor:start;fill:#000000;fill-opacity:1;fill-rule:nonzero;stroke:none"
         id="text7272"><tspan
           sodipodi:role="line"
           id="tspan7270"
           x="-1177.757"
           y="-1256.2142">Physics / Maths</tspan></text>
<text
         y="-1286.2142"
         x="-1177.757"
         transform="scale(1,-1)"
         style="font-style:normal;font-variant:normal;font-weight:normal;font-stretch:normal;font-size:8px;font-family:'Times New Roman';-inkscape-font-specification:'Times New Roman, Normal';font-variant-ligatures:normal;font-variant-caps:normal;font-variant-numeric:normal;font-feature-settings:normal;text-align:start;writing-mode:lr-tb;text-anchor:start;fill:#000000;fill-opacity:1;fill-rule:nonzero;stroke:none"
         id="text7280"><tspan
           sodipodi:role="line"
           id="tspan7278"
           x="-1177.757"
           y="-1286.2142">Geography</tspan></text>
<text
         y="-1315.0707"
         x="-1200.1776"
         transform="scale(1,-1)"
         style="font-variant:normal;font-weight:bold;font-size:8px;font-family:'Times New Roman';-inkscape-font-specification:Times-Bold;writing-mode:lr-tb;fill:#000000;fill-opacity:1;fill-rule:nonzero;stroke:none"
         id="text7284"><tspan
           sodipodi:role="line"
           id="tspan7282"
           x="-1200.1776"
           y="-1315.0707">Main discipline of the publication</tspan></text>
<text
         y="-1301.2142"
         x="-1177.757"
         transform="scale(1,-1)"
         style="font-style:normal;font-variant:normal;font-weight:normal;font-stretch:normal;font-size:8px;font-family:'Times New Roman';-inkscape-font-specification:'Times New Roman, Normal';font-variant-ligatures:normal;font-variant-caps:normal;font-variant-numeric:normal;font-feature-settings:normal;text-align:start;writing-mode:lr-tb;text-anchor:start;fill:#000000;fill-opacity:1;fill-rule:nonzero;stroke:none"
         id="text7391"><tspan
           sodipodi:role="line"
           id="tspan7389"
           x="-1177.757"
           y="-1301.2142">Economics</tspan></text>
<rect
         transform="scale(1,-1)"
         y="-1325.9028"
         x="-1205.5541"
         height="78.924248"
         width="124.85788"
         id="rect7463"
         style="opacity:0.74199997;fill:none;fill-opacity:0.60606007;stroke:#000000;stroke-width:0.71178472;stroke-miterlimit:10;stroke-dasharray:none;stroke-opacity:1" /></g><g
       id="g8564"
       transform="translate(1133.5793,-581.26725)"><path
         d="m -1196.7929,1067.3325 c 0,0.35 0.28,0.63 0.63,0.63 0.34,0 0.63,-0.28 0.63,-0.63 0,-0.34 -0.29,-0.63 -0.63,-0.63 -0.35,0 -0.63,0.29 -0.63,0.63"
         style="opacity:0.74199997;fill:#334e5d;fill-opacity:0.60606007;fill-rule:nonzero;stroke:#3c4ecf;stroke-width:0.075;stroke-linecap:round;stroke-linejoin:round;stroke-miterlimit:10;stroke-dasharray:none;stroke-opacity:0.6"
         id="path1330"
         inkscape:connector-curvature="0" /><path
         inkscape:connector-curvature="0"
         id="path7301"
         style="opacity:0.74199997;fill:#334e5d;fill-opacity:0.60606007;fill-rule:nonzero;stroke:#3c4ecf;stroke-width:0.075;stroke-linecap:round;stroke-linejoin:round;stroke-miterlimit:10;stroke-dasharray:none;stroke-opacity:0.6"
         d="m -1177.34,992.45688 c 0,2.07 1.7,3.77 3.78,3.77 2.07,0 3.77,-1.7 3.77,-3.77 0,-2.08 -1.7,-3.78 -3.77,-3.78 -2.08,0 -3.78,1.7 -3.78,3.78" /><g
         transform="translate(-1699.1258,787.58688)"
         style="opacity:1"
         id="g7299"><path
           d="m 499.14577,227.51 c 0,14.53 11.88,26.41 26.41,26.41 14.53,0 26.42,-11.88 26.42,-26.41 0,-14.53 -11.89,-26.42 -26.42,-26.42 -14.53,0 -26.41,11.89 -26.41,26.42"
           style="opacity:0.74199997;fill:#334e5d;fill-opacity:0.60606007;fill-rule:nonzero;stroke:#3c4ecf;stroke-width:0.075;stroke-linecap:round;stroke-linejoin:round;stroke-miterlimit:10;stroke-dasharray:none;stroke-opacity:0.6"
           id="path7288"
           inkscape:connector-curvature="0" /><path
           d="m 509.83577,216.81 c 0,8.65 7.07,15.73 15.72,15.73 8.65,0 15.73,-7.08 15.73,-15.73 0,-8.65 -7.08,-15.72 -15.73,-15.72 -8.65,0 -15.72,7.07 -15.72,15.72"
           style="opacity:0.74199997;fill:#334e5d;fill-opacity:0.60606007;fill-rule:nonzero;stroke:#3c4ecf;stroke-width:0.075;stroke-linecap:round;stroke-linejoin:round;stroke-miterlimit:10;stroke-dasharray:none;stroke-opacity:0.6"
           id="path7292"
           inkscape:connector-curvature="0" /><path
           d="m 518.01077,208.64 c 0,4.15 3.4,7.55 7.55,7.55 4.15,0 7.55,-3.4 7.55,-7.55 0,-4.15 -3.4,-7.55 -7.55,-7.55 -4.15,0 -7.55,3.4 -7.55,7.55"
           style="opacity:0.74199997;fill:#334e5d;fill-opacity:0.60606007;fill-rule:nonzero;stroke:#3c4ecf;stroke-width:0.075;stroke-linecap:round;stroke-linejoin:round;stroke-miterlimit:10;stroke-dasharray:none;stroke-opacity:0.6"
           id="path7294"
           inkscape:connector-curvature="0" /></g><path
         inkscape:connector-curvature="0"
         id="path7286"
         style="opacity:0.74199997;fill:#334e5d;fill-opacity:0.60606007;fill-rule:nonzero;stroke:#3c4ecf;stroke-width:0.075;stroke-linecap:round;stroke-linejoin:round;stroke-miterlimit:10;stroke-dasharray:none;stroke-opacity:0.6"
         d="m -1174.195,989.30688 c 0,0.34 0.29,0.63 0.63,0.63 0.35,0 0.63,-0.29 0.63,-0.63 0,-0.35 -0.28,-0.63 -0.63,-0.63 -0.34,0 -0.63,0.28 -0.63,0.63" /><path
         inkscape:connector-curvature="0"
         id="path7307"
         d="m -1173.5358,1041.7313 h 36.4292"
         style="fill:none;stroke:#000000;stroke-width:0.26250002;stroke-linecap:butt;stroke-linejoin:miter;stroke-miterlimit:4;stroke-dasharray:none;stroke-opacity:1" /><path
         style="fill:none;stroke:#000000;stroke-width:0.26250002;stroke-linecap:butt;stroke-linejoin:miter;stroke-miterlimit:4;stroke-dasharray:none;stroke-opacity:1"
         d="m -1173.5358,1020.2061 h 36.4292"
         id="path7309"
         inkscape:connector-curvature="0" /><path
         inkscape:connector-curvature="0"
         id="path7311"
         d="m -1173.5358,1003.7061 h 36.4292"
         style="fill:none;stroke:#000000;stroke-width:0.26250002;stroke-linecap:butt;stroke-linejoin:miter;stroke-miterlimit:4;stroke-dasharray:none;stroke-opacity:1" /><path
         inkscape:connector-curvature="0"
         id="path7315"
         d="m -1173.5358,996.08689 h 36.4292"
         style="fill:none;stroke:#000000;stroke-width:0.26250002;stroke-linecap:butt;stroke-linejoin:miter;stroke-miterlimit:4;stroke-dasharray:none;stroke-opacity:1" /><text
         id="text7331"
         style="font-variant:normal;font-weight:bold;font-size:8px;font-family:'Times New Roman';-inkscape-font-specification:Times-Bold;writing-mode:lr-tb;fill:#000000;fill-opacity:1;fill-rule:nonzero;stroke:none"
         transform="scale(1,-1)"
         x="-1200.1776"
         y="-1050.5118"><tspan
           y="-1050.5118"
           x="-1200.1776"
           id="tspan7329"
           sodipodi:role="line"># citations from full text articles</tspan></text>
<text
         y="-1039.6554"
         x="-1132.757"
         transform="scale(1,-1)"
         style="font-style:normal;font-variant:normal;font-weight:normal;font-stretch:normal;font-size:8px;font-family:'Times New Roman';-inkscape-font-specification:'Times New Roman, Normal';font-variant-ligatures:normal;font-variant-caps:normal;font-variant-numeric:normal;font-feature-settings:normal;text-align:start;writing-mode:lr-tb;text-anchor:start;fill:#000000;fill-opacity:1;fill-rule:nonzero;stroke:none"
         id="text7335"><tspan
           sodipodi:role="line"
           id="tspan7333"
           x="-1132.757"
           y="-1039.6554">42</tspan></text>
<text
         id="text7339"
         style="font-style:normal;font-variant:normal;font-weight:normal;font-stretch:normal;font-size:8px;font-family:'Times New Roman';-inkscape-font-specification:'Times New Roman, Normal';font-variant-ligatures:normal;font-variant-caps:normal;font-variant-numeric:normal;font-feature-settings:normal;text-align:start;writing-mode:lr-tb;text-anchor:start;fill:#000000;fill-opacity:1;fill-rule:nonzero;stroke:none"
         transform="scale(1,-1)"
         x="-1132.757"
         y="-1017.1554"><tspan
           y="-1017.1554"
           x="-1132.757"
           id="tspan7337"
           sodipodi:role="line">25</tspan></text>
<text
         y="-1003.6554"
         x="-1132.757"
         transform="scale(1,-1)"
         style="font-style:normal;font-variant:normal;font-weight:normal;font-stretch:normal;font-size:8px;font-family:'Times New Roman';-inkscape-font-specification:'Times New Roman, Normal';font-variant-ligatures:normal;font-variant-caps:normal;font-variant-numeric:normal;font-feature-settings:normal;text-align:start;writing-mode:lr-tb;text-anchor:start;fill:#000000;fill-opacity:1;fill-rule:nonzero;stroke:none"
         id="text7343"><tspan
           sodipodi:role="line"
           id="tspan7341"
           x="-1132.757"
           y="-1003.6554">12</tspan></text>
<text
         id="text7347"
         style="font-style:normal;font-variant:normal;font-weight:normal;font-stretch:normal;font-size:8px;font-family:'Times New Roman';-inkscape-font-specification:'Times New Roman, Normal';font-variant-ligatures:normal;font-variant-caps:normal;font-variant-numeric:normal;font-feature-settings:normal;text-align:start;writing-mode:lr-tb;text-anchor:start;fill:#000000;fill-opacity:1;fill-rule:nonzero;stroke:none"
         transform="scale(1,-1)"
         x="-1132.757"
         y="-994.6554"><tspan
           y="-994.6554"
           x="-1132.757"
           id="tspan7345"
           sodipodi:role="line">6</tspan></text>
<rect
         style="opacity:0.74199997;fill:none;fill-opacity:0.60606007;stroke:#000000;stroke-width:0.71178472;stroke-miterlimit:10;stroke-dasharray:none;stroke-opacity:1"
         id="rect7499"
         width="124.85788"
         height="78.924248"
         x="-1205.5541"
         y="-1061.9028"
         transform="scale(1,-1)" /></g></g></svg>