<?xml version="1.0" encoding="UTF-8" standalone="no"?>
<!-- Created with Inkscape (http://www.inkscape.org/) -->

<svg
   xmlns:dc="http://purl.org/dc/elements/1.1/"
   xmlns:cc="http://creativecommons.org/ns#"
   xmlns:rdf="http://www.w3.org/1999/02/22-rdf-syntax-ns#"
   xmlns:svg="http://www.w3.org/2000/svg"
   xmlns="http://www.w3.org/2000/svg"
   xmlns:sodipodi="http://sodipodi.sourceforge.net/DTD/sodipodi-0.dtd"
   xmlns:inkscape="http://www.inkscape.org/namespaces/inkscape"
   id="svg2"
   version="1.1"
   inkscape:version="0.91 r13725"
   xml:space="preserve"
   width="562.5"
   height="501.25"
   viewBox="0 0 562.5 501.25"
   sodipodi:docname="network_disciplines_intra.svg"
   inkscape:export-filename="/Users/clementinecottineau/Documents/MetaZipf/network_disciplines_intra.png"
   inkscape:export-xdpi="300"
   inkscape:export-ydpi="300"><metadata
     id="metadata8"><rdf:RDF><cc:Work
         rdf:about=""><dc:format>image/svg+xml</dc:format><dc:type
           rdf:resource="http://purl.org/dc/dcmitype/StillImage" /><dc:title></dc:title></cc:Work></rdf:RDF></metadata><defs
     id="defs6" /><sodipodi:namedview
     pagecolor="#ffffff"
     bordercolor="#666666"
     borderopacity="1"
     objecttolerance="10"
     gridtolerance="10"
     guidetolerance="10"
     inkscape:pageopacity="0"
     inkscape:pageshadow="2"
     inkscape:window-width="1279"
     inkscape:window-height="774"
     id="namedview4"
     showgrid="false"
     inkscape:zoom="2.0337585"
     inkscape:cx="270.51873"
     inkscape:cy="314.3875"
     inkscape:window-x="-15"
     inkscape:window-y="7"
     inkscape:window-maximized="0"
     inkscape:current-layer="g10" /><g
     id="g10"
     inkscape:groupmode="layer"
     inkscape:label="network_intracites_disciplines"
     transform="matrix(1.25,0,0,-1.25,0,501.25)"><path
       inkscape:connector-curvature="0"
       id="path18"
       style="fill:none;stroke:#a9a9a9;stroke-width:23.24959946;stroke-linecap:round;stroke-linejoin:round;stroke-miterlimit:10;stroke-dasharray:none;stroke-opacity:1"
       d="m 102.67622,275.30541 c -4.80813,6.47145 -7.854305,11.08904 -11.375917,17.70098 l -1.81241,3.89065 -1.45463,3.70911 -1.07017,3.49304 -0.74173,3.27915 -0.44068,3.08307 -0.13961,2.88701 0.1608,2.67422 0.37779,2.48143 0.65015,2.26974 0.86715,2.07696 1.05547,1.86856 1.2164,1.67797 1.40536,1.48629 1.537627,1.28008 1.64253,1.09169 1.77478,0.88547 1.82363,0.69927 1.89985,0.49527 1.9487,0.30905 1.94084,0.10833 1.96166,-0.0768 1.95447,-0.26078 1.91858,-0.4604 1.85532,-0.64223 1.76342,-0.83965 1.67212,-1.02037 1.58021,-1.21782 1.43289,-1.39633 1.25688,-1.59048 1.10957,-1.76899 0.9062,-1.94534 0.70219,-2.13837 0.44276,-2.31251 0.21072,-2.50447 -0.0487,-2.67861 -0.36482,-2.86726 -0.68027,-3.0392 -0.99575,-3.21115 -1.33987,-3.39872 -1.74006,-3.58409 -2.11093,-3.73711 -2.51177,-3.93922 -2.96668,-4.08894 -3.3949,-4.27322 -3.87917,-4.45531"
       sodipodi:nodetypes="ccccccccccccccccccccccccccccccccccccccccccccccc" /><path
       inkscape:connector-curvature="0"
       id="path22"
       style="fill:#333333;fill-opacity:1;fill-rule:nonzero;stroke:#a9a9a9;stroke-width:0.80000001;stroke-linecap:round;stroke-linejoin:round;stroke-miterlimit:10;stroke-dasharray:none;stroke-opacity:1"
       d="m 76.373414,293.26939 2.400853,-3.02004 2.435904,-3.32661 2.472679,-3.73222 2.580351,-4.22575 2.665032,-5.1062 2.920563,-6.697 4.341242,-16.6008 2.501142,0.3308 -0.51652,17.17266 0.90413,7.26882 1.14093,5.61824 1.25374,4.82751 1.33336,4.24423 1.41871,3.88903 1.42386,3.59189 -29.275852,-4.2346 z"
       inkscape:transform-center-x="166.47914"
       inkscape:transform-center-y="-28.877603" /><path
       inkscape:connector-curvature="0"
       id="path24"
       style="fill:none;stroke:#a9a9a9;stroke-width:1.88;stroke-linecap:round;stroke-linejoin:round;stroke-miterlimit:10;stroke-dasharray:none;stroke-opacity:1"
       d="m 338.27108,234.93218 -1.32,2.74 -1.15,2.64 -0.99,2.51 -0.85,2.4 -0.7,2.29 -0.56,2.18 -0.44,2.06 -0.31,1.94 -0.19,1.83 -0.09,1.72 0.01,1.6 0.11,1.49 0.2,1.37 0.27,1.26 0.36,1.14 0.41,1.03 0.48,0.92 0.53,0.8 0.57,0.69 0.61,0.57 0.65,0.45 0.67,0.35 0.68,0.23 0.7,0.11 0.7,0 0.7,-0.11 0.69,-0.23 0.66,-0.35 0.65,-0.45 0.61,-0.57 0.58,-0.69 0.52,-0.8 0.48,-0.92 0.42,-1.03 0.35,-1.14 0.27,-1.26 0.2,-1.37 0.11,-1.49 0.01,-1.6 -0.08,-1.72 -0.2,-1.83 -0.31,-1.94 -0.44,-2.06 -0.56,-2.18 -0.7,-2.29 -0.84,-2.4 -1,-2.51 -1.15,-2.64 -1.32,-2.74 0,0" /><path
       inkscape:connector-curvature="0"
       id="path26"
       style="fill:none;stroke:#a9a9a9;stroke-width:1.88;stroke-linecap:round;stroke-linejoin:round;stroke-miterlimit:10;stroke-dasharray:none;stroke-opacity:1"
       d="m 337.58108,236.38218 0.69,-1.45" /><path
       inkscape:connector-curvature="0"
       id="path28"
       style="fill:#333333;fill-opacity:1;fill-rule:nonzero;stroke:#a9a9a9;stroke-width:0.80000001;stroke-linecap:round;stroke-linejoin:round;stroke-miterlimit:10;stroke-dasharray:none;stroke-opacity:1"
       d="m 329.65108,242.79218 1.01,-0.69 1.06,-0.78 1.12,-0.89 1.18,-1.05 1.31,-1.29 1.53,-1.77 2.91,-4.64 0.2,0.1 -1.79,5.17 -0.42,2.3 -0.19,1.83 -0.08,1.58 0,1.43 0.06,1.31 0.09,1.23 -7.99,-3.84 z" /><path
       inkscape:connector-curvature="0"
       id="path30"
       style="fill:none;stroke:#a9a9a9;stroke-width:16.5;stroke-linecap:round;stroke-linejoin:round;stroke-miterlimit:10;stroke-dasharray:none;stroke-opacity:1"
       d="m 285.23404,320.7877 3.16146,3.29408 3.0235,2.86985 2.89704,2.49554 2.75908,2.09623 2.63264,1.74686 2.49467,1.42245 2.36821,1.07309 2.24176,0.7736 2.10381,0.49911 1.96586,0.22459 1.85088,-0.0499 1.70143,-0.27451 1.58649,-0.47415 1.44852,-0.69874 1.31056,-0.87344 1.18411,-1.04812 1.04615,-1.17289 0.93119,-1.32263 0.78174,-1.4474 0.65529,-1.52227 0.52883,-1.59714 0.39087,-1.672 0.26441,-1.7219 0.13795,-1.74688 0,-1.74686 -0.13795,-1.7219 -0.26441,-1.72192 -0.39087,-1.672 -0.52883,-1.59714 -0.65529,-1.54721 -0.78174,-1.42246 -0.93119,-1.32263 -1.04615,-1.19785 -1.18411,-1.02316 -1.31056,-0.87342 -1.44852,-0.69876 -1.58649,-0.49909 -1.70143,-0.24956 -1.85088,-0.0499 -1.96586,0.22459 -2.10381,0.49911 -2.24176,0.77361 -2.36821,1.07307 -2.49467,1.42245 -2.63264,1.74686 -2.75908,2.09625 -2.89704,2.47056 -3.0235,2.89481 -3.16146,3.26914 0,0" /><path
       inkscape:connector-curvature="0"
       id="path34"
       style="fill:#333333;fill-opacity:1;fill-rule:nonzero;stroke:#a9a9a9;stroke-width:0.8;stroke-linecap:round;stroke-linejoin:round;stroke-miterlimit:10;stroke-dasharray:none;stroke-opacity:1"
       d="m 294.65912,344.27453 -1.71876,-2.54076 -1.94293,-2.64041 -2.21693,-2.76494 -2.61549,-2.96422 -3.21332,-3.23823 -4.40897,-3.81113 -11.55797,-7.24864 0.72238,-1.51948 12.90308,4.4837 5.70425,1.02128 4.55842,0.49819 3.93569,0.17437 3.56204,0 3.26314,-0.1246 3.06386,-0.24911 -10.03849,20.92392 z" /><path
       inkscape:connector-curvature="0"
       id="path38"
       style="fill:none;stroke:#a9a9a9;stroke-width:6.75;stroke-linecap:round;stroke-linejoin:round;stroke-miterlimit:10;stroke-dasharray:none;stroke-opacity:1"
       d="m 205.5,152.13 -0.12,0.03 -0.75,0.24 -1.84,0.59 -3.13,1.03 -4.39,1.48 -5.37,1.85 -5.94,2.13 -6.1,2.28 -5.91,2.33 -5.47,2.32 -4.92,2.28 -4.33,2.25 -3.76,2.23 -3.23,2.26 -2.78,2.33 -2.4,2.45 -2.08,2.61 -0.11,0.15 c -9.4,9.7 4.59,-5.21 -9.4,9.7 l 0.01,0.94 0.01,0.19 0,0"
       sodipodi:nodetypes="ccccccccccccccccccccccc" /><path
       inkscape:connector-curvature="0"
       id="path40"
       style="fill:none;stroke:#a9a9a9;stroke-width:33.38000107;stroke-linecap:round;stroke-linejoin:round;stroke-miterlimit:10;stroke-dasharray:none;stroke-opacity:1"
       d="m 196.93,288.16 -0.04,-0.16 -0.3,-0.97 -0.71,-2.21 -1.13,-3.44 -1.46,-4.24 -1.63,-4.47 -1.68,-4.24 -1.65,-3.73 -1.62,-3.15 -1.63,-2.59 -1.69,-2.1 -1.82,-1.73 -0.98,-0.76 -2.08,-1.3 -2.35,-1.06"
       sodipodi:nodetypes="cccccccccccccccc" /><path
       inkscape:connector-curvature="0"
       id="path42"
       style="fill:none;stroke:#a9a9a9;stroke-width:0.75040001;stroke-linecap:round;stroke-linejoin:round;stroke-miterlimit:10;stroke-dasharray:none;stroke-opacity:1"
       d="m 149.68062,219.84456 0.0801,0.0259 0.58091,0.1642 1.45226,0.41481 2.564,0.7216 3.72581,1.04135 4.82752,1.32654 5.67885,1.53826 6.23973,1.6506 6.4801,1.67221 6.46007,1.6074 6.24974,1.48641 5.89919,1.32653 5.49857,1.14073 5.10796,0.95061 4.72737,0.76049 4.4269,0.57901 4.18653,0.40617 4.00624,0.23765 3.90609,0.0864 2.91454,-0.0346 3.83598,-0.15987 3.85601,-0.30679 3.94615,-0.46666 4.09639,-0.64382 4.31672,-0.82963 4.60719,-1.02839 4.92768,-1.23147 5.28824,-1.43888 5.63879,-1.63332 5.92924,-1.80184 6.07947,-1.92282 6.04943,-1.97036 5.75898,-1.9185 5.17807,-1.75431 4.32674,-1.49073 3.29514,-1.14506 2.19342,-0.77345 1.20187,-0.42777 0.43067,-0.15556 0.0501,-0.0173" /><path
       inkscape:connector-curvature="0"
       id="path36"
       style="fill:none;stroke:#a9a9a9;stroke-width:10.5;stroke-linecap:round;stroke-linejoin:round;stroke-miterlimit:10;stroke-dasharray:none;stroke-opacity:1"
       d="m 315.74,214.44 -0.09,-0.06 -0.58,-0.39 -1.45,-0.96 c -56.7482,-18.49617 -89.31485,-17.57036 -162.13897,-0.601"
       sodipodi:nodetypes="ccccc" /><path
       inkscape:connector-curvature="0"
       id="path44"
       style="fill:none;stroke:#a9a9a9;stroke-width:0.38;stroke-linecap:round;stroke-linejoin:round;stroke-miterlimit:10;stroke-dasharray:none;stroke-opacity:1"
       d="m 334.56108,211.17939 -0.0463,-0.10419 -0.28499,-0.67675 -0.71112,-1.67499 -1.24048,-2.91772 -1.81416,-4.20645 -2.33137,-5.33036 -2.73519,-6.14918 -2.99272,-6.6038 C 305.8832,148.7929 246.15342,154.01612 217.0237,150.80781"
       sodipodi:nodetypes="cccccccccc" /><path
       inkscape:connector-curvature="0"
       id="path46"
       style="fill:none;stroke:#a9a9a9;stroke-width:1.5;stroke-linecap:round;stroke-linejoin:round;stroke-miterlimit:10;stroke-dasharray:none;stroke-opacity:1"
       d="m 267.4,283 0.15,-0.02 0.95,-0.12 2.21,-0.29 3.55,-0.5 4.55,-0.69 5.03,-0.84 5,-0.95 4.61,-1.02 4.05,-1.08 3.47,-1.16 2.94,-1.27 2.5,-1.42 2.16,-1.62 1,-0.92 1.78,-1.95 1.59,-2.25 1.45,-2.65 1.34,-3.15 1.28,-3.71 1.25,-4.31 1.21,-4.81 1.15,-5.08 1.02,-4.92 0.82,-4.23 0.57,-3.06 0.3,-1.71 0.1,-0.58 0.01,-0.04" /><path
       inkscape:connector-curvature="0"
       id="path48"
       style="fill:none;stroke:#a9a9a9;stroke-width:9.75;stroke-linecap:round;stroke-linejoin:round;stroke-miterlimit:10;stroke-dasharray:none;stroke-opacity:1"
       d="m 143.75,249.85 0.05,0.16 0.3,0.97 0.71,2.21 1.13,3.44 1.46,4.24 1.63,4.47 1.67,4.24 1.66,3.73 1.62,3.15 1.63,2.59 1.69,2.1 1.82,1.73 0.98,0.76 2.08,1.3 2.35,1.06 2.73,0.85 3.22,0.67 3.79,0.52 4.34,0.39 4.75,0.28 4.78,0.17 4.26,0.09 3.2,0.03 1.83,0 0.63,0 0.04,0" /><path
       inkscape:connector-curvature="0"
       id="path58"
       style="fill:#333333;fill-opacity:1;fill-rule:nonzero;stroke:#a9a9a9;stroke-width:0.80000001;stroke-linecap:round;stroke-linejoin:round;stroke-miterlimit:10;stroke-dasharray:none;stroke-opacity:1"
       d="m 171.93538,270.50892 -4.11167,-3.42609 -4.49788,-3.48065 -5.05575,-3.55951 -5.77921,-3.70551 -6.9318,-3.91214 -9.15719,-4.27043 -22.83473,-6.59719 0.13385,-0.63763 23.70936,1.3371 10.07475,-0.98361 7.81249,-1.39083 6.69677,-1.54852 5.93041,-1.70059 5.4215,-1.81627 5.02923,-1.82795 -6.44017,37.5198 z" /><path
       inkscape:connector-curvature="0"
       id="path50"
       style="fill:none;stroke:#a9a9a9;stroke-width:4.88000011;stroke-linecap:round;stroke-linejoin:round;stroke-miterlimit:10;stroke-dasharray:none;stroke-opacity:1"
       d="m 322.4,229.65 -0.15,0.02 -0.94,0.12 -2.22,0.29 -3.54,0.5 -4.56,0.69 -5.03,0.85 -4.99,0.94 -4.61,1.02 -4.06,1.08 -3.47,1.16 -2.94,1.27 -2.5,1.43 -2.15,1.62 -1,0.91 -1.79,1.95 -1.59,2.25 -1.44,2.66 -1.35,3.14 -1.28,3.72 -1.25,4.3 -1.21,4.81 -1.14,5.08 -1.02,4.92 -0.83,4.23 -0.56,3.06 -0.31,1.71 -0.1,0.58 0,0.04" /><path
       inkscape:connector-curvature="0"
       id="path52"
       style="fill:none;stroke:#a9a9a9;stroke-width:4.12319994;stroke-linecap:round;stroke-linejoin:round;stroke-miterlimit:10;stroke-dasharray:none;stroke-opacity:1"
       d="m 208.98717,157.81712 c -9.95942,63.86932 -1.69509,76.9298 3.79902,99.71823 l 1.16822,4.76629 0.95272,3.82517 0.69753,2.77274 0.4395,1.74055 0.21549,0.85004 0.0624,0.24286 0.003,0.0101"
       sodipodi:nodetypes="ccccccccc" /><path
       inkscape:connector-curvature="0"
       id="path56"
       style="fill:#333333;fill-opacity:1;fill-rule:nonzero;stroke:#a9a9a9;stroke-width:0.80000001;stroke-linecap:round;stroke-linejoin:round;stroke-miterlimit:10;stroke-dasharray:none;stroke-opacity:1"
       d="m 147.18405,190.3004 -2.19769,0.73101 -2.31937,0.87478 -2.47973,1.03516 -2.68438,1.30611 -3.02945,1.65562 -3.68867,2.40546 -7.65613,6.91902 -0.21566,-0.1825 5.93853,-8.44649 1.94231,-3.95728 1.2831,-3.20742 0.94021,-2.83139 0.74776,-2.5748 0.56084,-2.41221 0.46571,-2.27065 12.39262,10.95558 z" /><path
       inkscape:connector-curvature="0"
       id="path60"
       style="fill:#333333;fill-opacity:1;fill-rule:nonzero;stroke:#a9a9a9;stroke-width:0.80000001;stroke-linecap:round;stroke-linejoin:round;stroke-miterlimit:10;stroke-dasharray:none;stroke-opacity:1"
       d="m 307.16451,213.71027 1.18444,0.33334 1.2816,0.30968 1.40108,0.28472 1.56389,0.2348 1.82913,0.17435 2.33201,0.0417 5.43072,-0.74141 0.0394,0.13655 -5.12722,1.93757 -2.0285,1.15449 -1.52956,1.031 -1.25646,0.95216 -1.09758,0.91144 -0.97809,0.88647 -0.88094,0.86282 -2.16393,-8.50964 z" /><path
       inkscape:connector-curvature="0"
       id="path62"
       style="fill:#333333;fill-opacity:1;fill-rule:nonzero;stroke:#a9a9a9;stroke-width:0.80000001;stroke-linecap:round;stroke-linejoin:round;stroke-miterlimit:10;stroke-dasharray:none;stroke-opacity:1"
       d="m 326.30924,181.92405 -0.0521,1.22678 -0.007,1.3182 0.0365,1.42365 0.13051,1.57844 0.24958,1.81491 0.49385,2.29578 1.96243,5.10295 -0.12311,0.0696 -3.06129,-4.54663 -1.59025,-1.7035 -1.34846,-1.25859 -1.21717,-1.00628 -1.13717,-0.85331 -1.09381,-0.74786 -1.04069,-0.66255 7.79805,-4.05159 z" /><path
       inkscape:connector-curvature="0"
       id="path64"
       style="fill:#333333;fill-opacity:1;fill-rule:nonzero;stroke:#a9a9a9;stroke-width:0.8;stroke-linecap:round;stroke-linejoin:round;stroke-miterlimit:10;stroke-dasharray:none;stroke-opacity:1"
       d="m 316.16,241.83 0.82,-0.92 0.85,-1.01 0.87,-1.13 0.9,-1.3 0.96,-1.56 1.08,-2.08 1.73,-5.2 0.14,0.03 -0.53,5.46 0.14,2.33 0.25,1.82 0.3,1.55 0.33,1.39 0.37,1.26 0.38,1.18 -8.59,-1.82 z" /><path
       inkscape:connector-curvature="0"
       id="path66"
       style="fill:#a9a9a9;fill-opacity:1;fill-rule:nonzero;stroke:#a9a9a9;stroke-width:0.75;stroke-linecap:round;stroke-linejoin:round;stroke-miterlimit:10;stroke-dasharray:none;stroke-opacity:1"
       d="m 183.84,284.19 1.05,0.65 1.14,0.65 1.27,0.65 1.44,0.66 1.71,0.67 2.23,0.68 5.43,0.77 -0.01,0.15 -5.46,0.46 -2.27,0.55 -1.75,0.57 -1.47,0.57 -1.3,0.58 -1.18,0.59 -1.09,0.58 0.26,-8.78 z" /><path
       inkscape:connector-curvature="0"
       id="path68"
       style="fill:#333333;fill-opacity:1;fill-rule:nonzero;stroke:#a9a9a9;stroke-width:0.95999998;stroke-linecap:round;stroke-linejoin:round;stroke-miterlimit:10;stroke-dasharray:none;stroke-opacity:1"
       d="m 275.42959,273.16006 -1.21186,1.32867 -1.22647,1.47468 -1.27027,1.64989 -1.32867,1.8981 -1.40168,2.27773 -1.56228,3.03696 -2.52594,7.59241 -0.20441,-0.0438 0.75924,-7.95743 -0.18981,-3.41659 -0.36502,-2.65734 -0.43802,-2.26312 -0.49643,-2.02951 -0.52563,-1.8397 -0.55483,-1.70829 12.54208,2.65734 z" /><path
       inkscape:connector-curvature="0"
       id="path70"
       style="fill:#333333;fill-opacity:1;fill-rule:nonzero;stroke:#a9a9a9;stroke-width:0.80000001;stroke-linecap:round;stroke-linejoin:round;stroke-miterlimit:10;stroke-dasharray:none;stroke-opacity:1"
       d="m 220.8218,255.70913 -0.56169,2.25302 -0.53136,2.41231 -0.45626,2.65457 -0.3877,2.95607 -0.22822,3.46562 0.0287,4.39382 1.67073,10.1961 -0.25931,0.0676 -3.91949,-9.5517 -2.26171,-3.78365 -2.00336,-2.81328 -1.87028,-2.3367 -1.7675,-2.01939 -1.72663,-1.79293 -1.66207,-1.61782 15.93624,-4.48328 z" /><path
       d="m 164.53941,219.47896 -2.93496,-0.73295 -3.16978,-0.6596 -3.4589,-0.59506 -3.87428,-0.43962 -4.49946,-0.29592 -5.75137,0.0692 -13.28627,2.26754 -0.10997,-0.35222 12.46209,-5.1544 4.91252,-3.00306 3.66065,-2.63791 3.01926,-2.46341 2.62742,-2.31526 2.30747,-2.26688 2.10345,-2.17743 5.99214,20.75691 z"
       style="fill:#333333;fill-opacity:1;fill-rule:nonzero;stroke:#a9a9a9;stroke-width:1.04490042;stroke-linecap:round;stroke-linejoin:round;stroke-miterlimit:10;stroke-dasharray:none;stroke-opacity:1"
       id="path5276"
       inkscape:connector-curvature="0" /><path
       inkscape:connector-curvature="0"
       id="path72"
       style="fill:#006ff9;fill-opacity:1;fill-rule:nonzero;stroke:#000000;stroke-width:0.75;stroke-linecap:round;stroke-linejoin:round;stroke-miterlimit:10;stroke-dasharray:none;stroke-opacity:1"
       d="m 71.05,225.94 c 0,21.71 17.77,39.48 39.49,39.48 21.72,0 39.49,-17.77 39.49,-39.48 0,-21.72 -17.77,-39.49 -39.49,-39.49 -21.72,0 -39.49,17.77 -39.49,39.49" /><path
       inkscape:connector-curvature="0"
       id="path74"
       style="fill:#eead0e;fill-opacity:1;fill-rule:nonzero;stroke:#000000;stroke-width:0.75;stroke-linecap:round;stroke-linejoin:round;stroke-miterlimit:10;stroke-dasharray:none;stroke-opacity:1"
       d="m 317.14,213.11 c 0,12.27 10.04,22.32 22.32,22.32 12.27,0 22.32,-10.05 22.32,-22.32 0,-12.28 -10.05,-22.32 -22.32,-22.32 -12.28,0 -22.32,10.04 -22.32,22.32" /><path
       inkscape:connector-curvature="0"
       id="path76"
       style="fill:#43cd80;fill-opacity:1;fill-rule:nonzero;stroke:#000000;stroke-width:0.75;stroke-linecap:round;stroke-linejoin:round;stroke-miterlimit:10;stroke-dasharray:none;stroke-opacity:1"
       d="m 203.46,150.17 c 0,3.77 3.09,6.86 6.87,6.86 3.78,0 6.87,-3.09 6.87,-6.86 0,-3.78 -3.09,-6.87 -6.87,-6.87 -3.78,0 -6.87,3.09 -6.87,6.87" /><path
       d="m 177.3236,280.60088 1.64596,1.62943 1.82923,1.67291 2.04479,1.74341 2.379,1.80336 2.8468,1.95305 3.81372,2.20184 9.63367,3.69885 -0.0652,0.27489 -10.21912,-1.47611 -4.40788,0.0576 -3.44093,0.30634 -2.95049,0.44206 -2.63459,0.49766 -2.40504,0.59084 -2.23576,0.61164 4.16586,-16.00773 z"
       style="fill:#333333;fill-opacity:1;fill-rule:nonzero;stroke:#a9a9a9;stroke-width:0.80000001;stroke-linecap:round;stroke-linejoin:round;stroke-miterlimit:10;stroke-dasharray:none;stroke-opacity:1"
       id="path5021"
       inkscape:connector-curvature="0" /><path
       inkscape:connector-curvature="0"
       id="path78"
       style="fill:#ff4500;fill-opacity:1;fill-rule:nonzero;stroke:#000000;stroke-width:0.75;stroke-linecap:round;stroke-linejoin:round;stroke-miterlimit:10;stroke-dasharray:none;stroke-opacity:1"
       d="m 189.69,315.08 c 0,24.55 20.08,44.64 44.64,44.64 24.55,0 44.63,-20.09 44.63,-44.64 0,-24.55 -20.08,-44.64 -44.63,-44.64 -24.56,0 -44.64,20.09 -44.64,44.64" /><text
       y="-1256.2771"
       x="-1856.9189"
       transform="scale(1,-1)"
       style="font-style:normal;font-variant:normal;font-weight:normal;font-stretch:normal;font-size:8.53333282px;font-family:'Times New Roman';-inkscape-font-specification:'Times New Roman, Normal';text-align:start;writing-mode:lr-tb;text-anchor:start;fill:#000000;fill-opacity:1;fill-rule:nonzero;stroke:none"
       id="text7276"><tspan
         sodipodi:role="line"
         id="tspan7274"
         x="-1856.9189"
         y="-1256.2771" /></text>
<text
       y="-353.31766"
       x="194.15503"
       transform="scale(1,-1)"
       style="font-style:normal;font-variant:normal;font-weight:normal;font-stretch:normal;font-size:8.53333282px;font-family:'Times New Roman';-inkscape-font-specification:'Times New Roman, Normal';text-align:start;writing-mode:lr-tb;text-anchor:start;fill:#ff4500;fill-opacity:1;fill-rule:nonzero;stroke:none"
       id="text7268"><tspan
         sodipodi:role="line"
         x="196.65503"
         y="-353.31766"
         style="font-style:normal;font-variant:normal;font-weight:bold;font-stretch:normal;font-size:10px;font-family:'Times New Roman';-inkscape-font-specification:'Times New Roman, Bold';text-align:end;text-anchor:end;fill:#ff4500;fill-opacity:1"
         id="tspan5290">REGIONAL &amp; URBAN </tspan><tspan
         sodipodi:role="line"
         x="194.15503"
         y="-340.81766"
         style="font-style:normal;font-variant:normal;font-weight:bold;font-stretch:normal;font-size:10px;font-family:'Times New Roman';-inkscape-font-specification:'Times New Roman, Bold';text-align:end;text-anchor:end;fill:#ff4500;fill-opacity:1"
         id="tspan5320">SCIENCE</tspan></text>
<text
       id="text5292"
       style="font-style:normal;font-variant:normal;font-weight:normal;font-stretch:normal;font-size:8.53333282px;font-family:'Times New Roman';-inkscape-font-specification:'Times New Roman, Normal';text-align:start;writing-mode:lr-tb;text-anchor:start;fill:#ffffff;fill-opacity:1;fill-rule:nonzero;stroke:none"
       transform="scale(1,-1)"
       x="111.88511"
       y="-217.63098"><tspan
         id="tspan5296"
         style="font-style:normal;font-variant:normal;font-weight:bold;font-stretch:normal;font-size:24px;font-family:'Times New Roman';-inkscape-font-specification:'Times New Roman, Bold';text-align:center;text-anchor:middle;fill:#ffffff"
         y="-217.63098"
         x="111.88511"
         sodipodi:role="line">23</tspan></text>
<text
       y="-215.01753"
       x="260.12375"
       transform="scale(1,-1)"
       style="font-style:normal;font-variant:normal;font-weight:normal;font-stretch:normal;font-size:8.53333282px;font-family:'Times New Roman';-inkscape-font-specification:'Times New Roman, Normal';text-align:start;writing-mode:lr-tb;text-anchor:start;fill:#eead0e;fill-opacity:1;fill-rule:nonzero;stroke:none"
       id="text5300"><tspan
         sodipodi:role="line"
         x="260.12375"
         y="-215.01753"
         style="font-style:normal;font-variant:normal;font-weight:bold;font-stretch:normal;font-size:10px;font-family:'Times New Roman';-inkscape-font-specification:'Times New Roman, Bold';text-align:center;text-anchor:middle;fill:#eead0e;fill-opacity:1"
         id="tspan5302">GEOGRAPHY</tspan></text>
<text
       y="-170.69029"
       x="240.30025"
       transform="scale(1,-1)"
       style="font-style:normal;font-variant:normal;font-weight:normal;font-stretch:normal;font-size:8.53333282px;font-family:'Times New Roman';-inkscape-font-specification:'Times New Roman, Normal';text-align:start;writing-mode:lr-tb;text-anchor:start;fill:#43cd80;fill-opacity:1;fill-rule:nonzero;stroke:none;"
       id="text5304"><tspan
         sodipodi:role="line"
         x="240.30025"
         y="-170.69029"
         style="font-style:normal;font-variant:normal;font-weight:bold;font-stretch:normal;font-size:10px;font-family:'Times New Roman';-inkscape-font-specification:'Times New Roman, Bold';text-align:center;text-anchor:middle;fill:#43cd80;fill-opacity:1;"
         id="tspan5306">PHYSICS &amp;</tspan><tspan
         sodipodi:role="line"
         x="240.30025"
         y="-158.19029"
         style="font-style:normal;font-variant:normal;font-weight:bold;font-stretch:normal;font-size:10px;font-family:'Times New Roman';-inkscape-font-specification:'Times New Roman, Bold';text-align:center;text-anchor:middle;fill:#43cd80;fill-opacity:1;"
         id="tspan5308">MATHS</tspan></text>
<text
       id="text5310"
       style="font-style:normal;font-variant:normal;font-weight:normal;font-stretch:normal;font-size:8.53333282px;font-family:'Times New Roman';-inkscape-font-specification:'Times New Roman, Normal';text-align:start;writing-mode:lr-tb;text-anchor:start;fill:#006ff9;fill-opacity:1;fill-rule:nonzero;stroke:none"
       transform="scale(1,-1)"
       x="141.08763"
       y="-167.14009"><tspan
         id="tspan5314"
         style="font-style:normal;font-variant:normal;font-weight:bold;font-stretch:normal;font-size:10px;font-family:'Times New Roman';-inkscape-font-specification:'Times New Roman, Bold';text-align:end;text-anchor:end;fill:#006ff9;fill-opacity:1"
         y="-167.14009"
         x="141.08763"
         sodipodi:role="line">ECONOMICS</tspan></text>
<text
       y="-306.51889"
       x="235.26683"
       transform="scale(1,-1)"
       style="font-style:normal;font-variant:normal;font-weight:normal;font-stretch:normal;font-size:8.53333282px;font-family:'Times New Roman';-inkscape-font-specification:'Times New Roman, Normal';text-align:start;writing-mode:lr-tb;text-anchor:start;fill:#ffffff;fill-opacity:1;fill-rule:nonzero;stroke:none"
       id="text5322"><tspan
         sodipodi:role="line"
         x="235.26683"
         y="-306.51889"
         style="font-style:normal;font-variant:normal;font-weight:bold;font-stretch:normal;font-size:28px;font-family:'Times New Roman';-inkscape-font-specification:'Times New Roman, Bold';text-align:center;text-anchor:middle;fill:#ffffff"
         id="tspan5324">26</tspan></text>
<text
       id="text5326"
       style="font-style:normal;font-variant:normal;font-weight:normal;font-stretch:normal;font-size:8.53333282px;font-family:'Times New Roman';-inkscape-font-specification:'Times New Roman, Normal';text-align:start;writing-mode:lr-tb;text-anchor:start;fill:#ffffff;fill-opacity:1;fill-rule:nonzero;stroke:none"
       transform="scale(1,-1)"
       x="340.07495"
       y="-209.16415"><tspan
         id="tspan5328"
         style="font-style:normal;font-variant:normal;font-weight:bold;font-stretch:normal;font-size:13px;font-family:'Times New Roman';-inkscape-font-specification:'Times New Roman, Bold';text-align:center;text-anchor:middle;fill:#ffffff"
         y="-209.16415"
         x="340.07495"
         sodipodi:role="line">13</tspan></text>
<text
       y="-145.4632"
       x="210.21623"
       transform="scale(1,-1)"
       style="font-style:normal;font-variant:normal;font-weight:normal;font-stretch:normal;font-size:6.02045345px;font-family:'Times New Roman';-inkscape-font-specification:'Times New Roman, Normal';text-align:start;writing-mode:lr-tb;text-anchor:start;fill:#ffffff;fill-opacity:1;fill-rule:nonzero;stroke:none"
       id="text5330"><tspan
         sodipodi:role="line"
         x="210.21623"
         y="-145.4632"
         style="font-style:normal;font-variant:normal;font-weight:bold;font-stretch:normal;font-size:14.11043835px;font-family:'Times New Roman';-inkscape-font-specification:'Times New Roman, Bold';text-align:center;text-anchor:middle;fill:#ffffff"
         id="tspan5332">4</tspan></text>
<text
       y="-328.30429"
       x="105.25169"
       transform="scale(1,-1)"
       style="font-style:normal;font-variant:normal;font-weight:normal;font-stretch:normal;font-size:8.53333282px;font-family:'Times New Roman';-inkscape-font-specification:'Times New Roman, Normal';text-align:start;writing-mode:lr-tb;text-anchor:start;fill:#ffffff;fill-opacity:1;fill-rule:nonzero;stroke:none"
       id="text5334"><tspan
         sodipodi:role="line"
         x="105.25169"
         y="-328.30429"
         style="font-style:normal;font-variant:normal;font-weight:bold;font-stretch:normal;font-size:11px;font-family:'Times New Roman';-inkscape-font-specification:'Times New Roman, Bold';text-align:center;text-anchor:middle;fill:#000000"
         id="tspan5336">62</tspan></text>
<text
       id="text5338"
       style="font-style:normal;font-variant:normal;font-weight:normal;font-stretch:normal;font-size:8.53333282px;font-family:'Times New Roman';-inkscape-font-specification:'Times New Roman, Normal';text-align:start;writing-mode:lr-tb;text-anchor:start;fill:#ffffff;fill-opacity:1;fill-rule:nonzero;stroke:none"
       transform="scale(1,-1)"
       x="188.16951"
       y="-264.62341"><tspan
         id="tspan5340"
         style="font-style:normal;font-variant:normal;font-weight:bold;font-stretch:normal;font-size:11px;font-family:'Times New Roman';-inkscape-font-specification:'Times New Roman, Bold';text-align:center;text-anchor:middle;fill:#000000"
         y="-264.62341"
         x="188.16951"
         sodipodi:role="line">89</tspan></text>
<text
       y="-315.96426"
       x="323.35681"
       transform="scale(1,-1)"
       style="font-style:normal;font-variant:normal;font-weight:normal;font-stretch:normal;font-size:8.53333282px;font-family:'Times New Roman';-inkscape-font-specification:'Times New Roman, Normal';text-align:start;writing-mode:lr-tb;text-anchor:start;fill:#ffffff;fill-opacity:1;fill-rule:nonzero;stroke:none"
       id="text5342"><tspan
         sodipodi:role="line"
         x="323.35681"
         y="-315.96426"
         style="font-style:normal;font-variant:normal;font-weight:bold;font-stretch:normal;font-size:11px;font-family:'Times New Roman';-inkscape-font-specification:'Times New Roman, Bold';text-align:center;text-anchor:middle;fill:#000000"
         id="tspan5344">44</tspan></text>
<text
       id="text5346"
       style="font-style:normal;font-variant:normal;font-weight:normal;font-stretch:normal;font-size:8.53333282px;font-family:'Times New Roman';-inkscape-font-specification:'Times New Roman, Normal';text-align:start;writing-mode:lr-tb;text-anchor:start;fill:#ffffff;fill-opacity:1;fill-rule:nonzero;stroke:none"
       transform="scale(1,-1)"
       x="156.12466"
       y="-276.94342"><tspan
         id="tspan5348"
         style="font-style:normal;font-variant:normal;font-weight:bold;font-stretch:normal;font-size:11px;font-family:'Times New Roman';-inkscape-font-specification:'Times New Roman, Bold';text-align:center;text-anchor:middle;fill:#000000"
         y="-276.94342"
         x="156.12466"
         sodipodi:role="line">26</tspan></text>
<text
       y="-195.84239"
       x="241.14233"
       transform="scale(1,-1)"
       style="font-style:normal;font-variant:normal;font-weight:normal;font-stretch:normal;font-size:8.53333282px;font-family:'Times New Roman';-inkscape-font-specification:'Times New Roman, Normal';text-align:start;writing-mode:lr-tb;text-anchor:start;fill:#ffffff;fill-opacity:1;fill-rule:nonzero;stroke:none"
       id="text5350"><tspan
         sodipodi:role="line"
         x="241.14233"
         y="-195.84239"
         style="font-style:normal;font-variant:normal;font-weight:bold;font-stretch:normal;font-size:11px;font-family:'Times New Roman';-inkscape-font-specification:'Times New Roman, Bold';text-align:center;text-anchor:middle;fill:#000000"
         id="tspan5352">28</tspan></text>
<text
       id="text5354"
       style="font-style:normal;font-variant:normal;font-weight:normal;font-stretch:normal;font-size:8.53333282px;font-family:'Times New Roman';-inkscape-font-specification:'Times New Roman, Normal';text-align:start;writing-mode:lr-tb;text-anchor:start;fill:#ffffff;fill-opacity:1;fill-rule:nonzero;stroke:none"
       transform="scale(1,-1)"
       x="170.30705"
       y="-160.94313"><tspan
         id="tspan5356"
         style="font-style:normal;font-variant:normal;font-weight:bold;font-stretch:normal;font-size:11px;font-family:'Times New Roman';-inkscape-font-specification:'Times New Roman, Bold';text-align:center;text-anchor:middle;fill:#000000"
         y="-160.94313"
         x="170.30705"
         sodipodi:role="line">18</tspan></text>
<text
       y="-163.51593"
       x="291.22876"
       transform="scale(1,-1)"
       style="font-style:normal;font-variant:normal;font-weight:normal;font-stretch:normal;font-size:8.53333282px;font-family:'Times New Roman';-inkscape-font-specification:'Times New Roman, Normal';text-align:start;writing-mode:lr-tb;text-anchor:start;fill:#ffffff;fill-opacity:1;fill-rule:nonzero;stroke:none"
       id="text5358"><tspan
         sodipodi:role="line"
         x="291.22876"
         y="-163.51593"
         style="font-style:normal;font-variant:normal;font-weight:bold;font-stretch:normal;font-size:11px;font-family:'Times New Roman';-inkscape-font-specification:'Times New Roman, Bold';text-align:center;text-anchor:middle;fill:#000000"
         id="tspan5360">1</tspan></text>
<text
       id="text5366"
       style="font-style:normal;font-variant:normal;font-weight:normal;font-stretch:normal;font-size:8.53333282px;font-family:'Times New Roman';-inkscape-font-specification:'Times New Roman, Normal';text-align:start;writing-mode:lr-tb;text-anchor:start;fill:#ffffff;fill-opacity:1;fill-rule:nonzero;stroke:none"
       transform="scale(1,-1)"
       x="337.50723"
       y="-271.79782"><tspan
         id="tspan5368"
         style="font-style:normal;font-variant:normal;font-weight:bold;font-stretch:normal;font-size:11px;font-family:'Times New Roman';-inkscape-font-specification:'Times New Roman, Bold';text-align:center;text-anchor:middle;fill:#000000"
         y="-271.79782"
         x="337.50723"
         sodipodi:role="line">5</tspan></text>
<text
       id="text5374"
       style="font-style:normal;font-variant:normal;font-weight:normal;font-stretch:normal;font-size:8.53333282px;font-family:'Times New Roman';-inkscape-font-specification:'Times New Roman, Normal';text-align:start;writing-mode:lr-tb;text-anchor:start;fill:#ffffff;fill-opacity:1;fill-rule:nonzero;stroke:none"
       transform="scale(1,-1)"
       x="288.31036"
       y="-243.43924"><tspan
         id="tspan5376"
         style="font-style:normal;font-variant:normal;font-weight:bold;font-stretch:normal;font-size:11px;font-family:'Times New Roman';-inkscape-font-specification:'Times New Roman, Bold';text-align:center;text-anchor:middle;fill:#000000"
         y="-243.43924"
         x="288.31036"
         sodipodi:role="line">13</tspan></text>
<text
       y="-214.70961"
       x="196.11829"
       transform="scale(1,-1)"
       style="font-style:normal;font-variant:normal;font-weight:normal;font-stretch:normal;font-size:8.53333282px;font-family:'Times New Roman';-inkscape-font-specification:'Times New Roman, Normal';text-align:start;writing-mode:lr-tb;text-anchor:start;fill:#ffffff;fill-opacity:1;fill-rule:nonzero;stroke:none"
       id="text5378"><tspan
         sodipodi:role="line"
         x="196.11829"
         y="-214.70961"
         style="font-style:normal;font-variant:normal;font-weight:bold;font-stretch:normal;font-size:11px;font-family:'Times New Roman';-inkscape-font-specification:'Times New Roman, Bold';text-align:center;text-anchor:middle;fill:#000000"
         id="tspan5380">12</tspan></text>
<text
       id="text5382"
       style="font-style:normal;font-variant:normal;font-weight:normal;font-stretch:normal;font-size:8.53333282px;font-family:'Times New Roman';-inkscape-font-specification:'Times New Roman, Normal';text-align:start;writing-mode:lr-tb;text-anchor:start;fill:#ffffff;fill-opacity:1;fill-rule:nonzero;stroke:none"
       transform="scale(1,-1)"
       x="234.28152"
       y="-238.72243"><tspan
         id="tspan5384"
         style="font-style:normal;font-variant:normal;font-weight:bold;font-stretch:normal;font-size:11px;font-family:'Times New Roman';-inkscape-font-specification:'Times New Roman, Bold';text-align:center;text-anchor:middle;fill:#000000"
         y="-238.72243"
         x="234.28152"
         sodipodi:role="line">2</tspan></text>
<text
       id="text5390"
       style="font-style:normal;font-variant:normal;font-weight:normal;font-stretch:normal;font-size:8.53333282px;font-family:'Times New Roman';-inkscape-font-specification:'Times New Roman, Normal';text-align:start;writing-mode:lr-tb;text-anchor:start;fill:#ffffff;fill-opacity:1;fill-rule:nonzero;stroke:none"
       transform="scale(1,-1)"
       x="311.15198"
       y="-274.05701"><tspan
         id="tspan5392"
         style="font-style:normal;font-variant:normal;font-weight:bold;font-stretch:normal;font-size:11px;font-family:'Times New Roman';-inkscape-font-specification:'Times New Roman, Bold';text-align:center;text-anchor:middle;fill:#000000"
         y="-274.05701"
         x="311.15198"
         sodipodi:role="line">4</tspan></text>
</g></svg>